<svg width="612" height="67" viewBox="0 0 612 67" fill="none" xmlns="http://www.w3.org/2000/svg">
<path d="M26.1859 31.1071V56.3071H20.3539V45.9751H8.90594V56.3071H3.07394V31.1071H8.90594V41.0431H20.3539V31.1071H26.1859ZM48.7442 50.9071H37.0442L34.8122 56.3071H28.8362L40.0682 31.1071H45.8282L57.0962 56.3071H50.9762L48.7442 50.9071ZM46.9082 46.4791L42.9122 36.8311L38.9162 46.4791H46.9082ZM82.5676 31.1071L71.6596 56.3071H65.8996L55.0276 31.1071H61.3276L68.9956 49.1071L76.7716 31.1071H82.5676ZM104.184 51.6271V56.3071H84.6716V31.1071H103.716V35.7871H90.4676V41.2591H102.168V45.7951H90.4676V51.6271H104.184ZM135.615 50.9071H123.915L121.683 56.3071H115.707L126.939 31.1071H132.699L143.967 56.3071H137.847L135.615 50.9071ZM133.779 46.4791L129.783 36.8311L125.787 46.4791H133.779ZM169.694 31.1071V56.3071H164.906L152.342 41.0071V56.3071H146.582V31.1071H151.406L163.934 46.4071V31.1071H169.694ZM187.752 47.3791V56.3071H181.92V47.3071L172.164 31.1071H178.356L185.088 42.3031L191.82 31.1071H197.544L187.752 47.3791ZM237.431 59.0071C236.615 60.0151 235.619 60.7831 234.443 61.3111C233.291 61.8391 232.019 62.1031 230.627 62.1031C228.755 62.1031 227.063 61.6951 225.551 60.8791C224.039 60.0871 222.311 58.6711 220.367 56.6311C218.087 56.3431 216.047 55.6111 214.247 54.4351C212.471 53.2591 211.079 51.7471 210.071 49.8991C209.087 48.0271 208.595 45.9631 208.595 43.7071C208.595 41.2351 209.183 39.0151 210.359 37.0471C211.559 35.0551 213.203 33.4951 215.291 32.3671C217.403 31.2391 219.767 30.6751 222.383 30.6751C224.999 30.6751 227.351 31.2391 229.439 32.3671C231.527 33.4951 233.171 35.0551 234.371 37.0471C235.571 39.0151 236.171 41.2351 236.171 43.7071C236.171 46.6351 235.343 49.2031 233.687 51.4111C232.055 53.6191 229.883 55.1551 227.171 56.0191C227.771 56.6431 228.347 57.0871 228.899 57.3511C229.475 57.6391 230.087 57.7831 230.735 57.7831C232.295 57.7831 233.663 57.1591 234.839 55.9111L237.431 59.0071ZM214.499 43.7071C214.499 45.2671 214.835 46.6591 215.507 47.8831C216.203 49.1071 217.151 50.0671 218.351 50.7631C219.551 51.4351 220.895 51.7711 222.383 51.7711C223.871 51.7711 225.215 51.4351 226.415 50.7631C227.615 50.0671 228.551 49.1071 229.223 47.8831C229.919 46.6591 230.267 45.2671 230.267 43.7071C230.267 42.1471 229.919 40.7551 229.223 39.5311C228.551 38.3071 227.615 37.3591 226.415 36.6871C225.215 35.9911 223.871 35.6431 222.383 35.6431C220.895 35.6431 219.551 35.9911 218.351 36.6871C217.151 37.3591 216.203 38.3071 215.507 39.5311C214.835 40.7551 214.499 42.1471 214.499 43.7071ZM251.75 56.7391C248.15 56.7391 245.342 55.7431 243.326 53.7511C241.334 51.7591 240.338 48.9151 240.338 45.2191V31.1071H246.17V45.0031C246.17 49.5151 248.042 51.7711 251.786 51.7711C253.61 51.7711 255.002 51.2311 255.962 50.1511C256.922 49.0471 257.402 47.3311 257.402 45.0031V31.1071H263.162V45.2191C263.162 48.9151 262.154 51.7591 260.138 53.7511C258.146 55.7431 255.35 56.7391 251.75 56.7391ZM288.438 51.6271V56.3071H268.926V31.1071H287.97V35.7871H274.722V41.2591H286.422V45.7951H274.722V51.6271H288.438ZM301.358 56.7391C299.366 56.7391 297.434 56.4751 295.562 55.9471C293.714 55.3951 292.226 54.6871 291.098 53.8231L293.078 49.4311C294.158 50.2231 295.442 50.8591 296.93 51.3391C298.418 51.8191 299.906 52.0591 301.394 52.0591C303.05 52.0591 304.274 51.8191 305.066 51.3391C305.858 50.8351 306.254 50.1751 306.254 49.3591C306.254 48.7591 306.014 48.2671 305.534 47.8831C305.078 47.4751 304.478 47.1511 303.734 46.9111C303.014 46.6711 302.03 46.4071 300.782 46.1191C298.862 45.6631 297.29 45.2071 296.066 44.7511C294.842 44.2951 293.786 43.5631 292.898 42.5551C292.034 41.5471 291.602 40.2031 291.602 38.5231C291.602 37.0591 291.998 35.7391 292.79 34.5631C293.582 33.3631 294.77 32.4151 296.354 31.7191C297.962 31.0231 299.918 30.6751 302.222 30.6751C303.83 30.6751 305.402 30.8671 306.938 31.2511C308.474 31.6351 309.818 32.1871 310.97 32.9071L309.17 37.3351C306.842 36.0151 304.514 35.3551 302.186 35.3551C300.554 35.3551 299.342 35.6191 298.55 36.1471C297.782 36.6751 297.398 37.3711 297.398 38.2351C297.398 39.0991 297.842 39.7471 298.73 40.1791C299.642 40.5871 301.022 40.9951 302.87 41.4031C304.79 41.8591 306.362 42.3151 307.586 42.7711C308.81 43.2271 309.854 43.9471 310.718 44.9311C311.606 45.9151 312.05 47.2471 312.05 48.9271C312.05 50.3671 311.642 51.6871 310.826 52.8871C310.034 54.0631 308.834 54.9991 307.226 55.6951C305.618 56.3911 303.662 56.7391 301.358 56.7391ZM320.903 35.8591H312.839V31.1071H334.799V35.8591H326.735V56.3071H320.903V35.8591ZM337.937 31.1071H343.769V56.3071H337.937V31.1071ZM361.954 56.7391C359.338 56.7391 356.974 56.1751 354.862 55.0471C352.774 53.9191 351.13 52.3711 349.93 50.4031C348.754 48.4111 348.166 46.1791 348.166 43.7071C348.166 41.2351 348.754 39.0151 349.93 37.0471C351.13 35.0551 352.774 33.4951 354.862 32.3671C356.974 31.2391 359.338 30.6751 361.954 30.6751C364.57 30.6751 366.922 31.2391 369.01 32.3671C371.098 33.4951 372.742 35.0551 373.942 37.0471C375.142 39.0151 375.742 41.2351 375.742 43.7071C375.742 46.1791 375.142 48.4111 373.942 50.4031C372.742 52.3711 371.098 53.9191 369.01 55.0471C366.922 56.1751 364.57 56.7391 361.954 56.7391ZM361.954 51.7711C363.442 51.7711 364.786 51.4351 365.986 50.7631C367.186 50.0671 368.122 49.1071 368.794 47.8831C369.49 46.6591 369.838 45.2671 369.838 43.7071C369.838 42.1471 369.49 40.7551 368.794 39.5311C368.122 38.3071 367.186 37.3591 365.986 36.6871C364.786 35.9911 363.442 35.6431 361.954 35.6431C360.466 35.6431 359.122 35.9911 357.922 36.6871C356.722 37.3591 355.774 38.3071 355.078 39.5311C354.406 40.7551 354.07 42.1471 354.07 43.7071C354.07 45.2671 354.406 46.6591 355.078 47.8831C355.774 49.1071 356.722 50.0671 357.922 50.7631C359.122 51.4351 360.466 51.7711 361.954 51.7711ZM403.237 31.1071V56.3071H398.449L385.885 41.0071V56.3071H380.125V31.1071H384.949L397.477 46.4071V31.1071H403.237ZM414.023 47.5591C414.023 46.3111 414.299 45.2791 414.851 44.4631C415.427 43.6471 416.255 42.7471 417.335 41.7631C418.127 41.0431 418.703 40.4431 419.063 39.9631C419.447 39.4591 419.639 38.8951 419.639 38.2711C419.639 37.3831 419.279 36.6871 418.559 36.1831C417.863 35.6551 416.927 35.3911 415.751 35.3911C414.623 35.3911 413.615 35.6311 412.727 36.1111C411.863 36.5671 411.131 37.2151 410.531 38.0551L406.175 35.4991C407.183 33.9631 408.539 32.7751 410.243 31.9351C411.971 31.0951 414.011 30.6751 416.363 30.6751C419.123 30.6751 421.331 31.2631 422.987 32.4391C424.667 33.6151 425.507 35.2471 425.507 37.3351C425.507 38.3191 425.339 39.1831 425.003 39.9271C424.691 40.6711 424.295 41.3071 423.815 41.8351C423.359 42.3391 422.759 42.9271 422.015 43.5991C421.127 44.3911 420.479 45.0631 420.071 45.6151C419.663 46.1431 419.459 46.7911 419.459 47.5591H414.023ZM416.759 56.5951C415.775 56.5951 414.947 56.2831 414.275 55.6591C413.627 55.0111 413.303 54.2311 413.303 53.3191C413.303 52.4071 413.627 51.6511 414.275 51.0511C414.923 50.4271 415.751 50.1151 416.759 50.1151C417.767 50.1151 418.595 50.4271 419.243 51.0511C419.891 51.6511 420.215 52.4071 420.215 53.3191C420.215 54.2311 419.879 55.0111 419.207 55.6591C418.559 56.2831 417.743 56.5951 416.759 56.5951Z" fill="url(#paint0_linear)"/>
<path d="M40.0943 16.8526C38.9849 16.8526 37.9823 16.6073 37.0863 16.1166C36.2009 15.6259 35.5023 14.9486 34.9903 14.0846C34.4889 13.2099 34.2383 12.2339 34.2383 11.1566C34.2383 10.0793 34.4889 9.10859 34.9903 8.24459C35.5023 7.36992 36.2063 6.68726 37.1023 6.19659C37.9983 5.70592 39.0009 5.46059 40.1103 5.46059C40.9423 5.46059 41.7103 5.59926 42.4143 5.87659C43.1183 6.15392 43.7156 6.55926 44.2063 7.09259L43.4543 7.84459C42.5796 6.95926 41.4756 6.51659 40.1423 6.51659C39.2569 6.51659 38.4516 6.71926 37.7263 7.12459C37.0009 7.52992 36.4303 8.08459 36.0143 8.78859C35.6089 9.49259 35.4062 10.2819 35.4062 11.1566C35.4062 12.0313 35.6089 12.8206 36.0143 13.5246C36.4303 14.2286 37.0009 14.7833 37.7263 15.1886C38.4516 15.5939 39.2569 15.7966 40.1423 15.7966C41.4863 15.7966 42.5903 15.3486 43.4543 14.4526L44.2063 15.2046C43.7156 15.7379 43.1129 16.1486 42.3983 16.4366C41.6943 16.7139 40.9263 16.8526 40.0943 16.8526ZM51.3919 16.8526C50.2825 16.8526 49.2745 16.6073 48.3679 16.1166C47.4719 15.6153 46.7679 14.9326 46.2559 14.0686C45.7545 13.2046 45.5039 12.2339 45.5039 11.1566C45.5039 10.0793 45.7545 9.10859 46.2559 8.24459C46.7679 7.38059 47.4719 6.70326 48.3679 6.21259C49.2745 5.71126 50.2825 5.46059 51.3919 5.46059C52.5012 5.46059 53.4985 5.70592 54.3839 6.19659C55.2799 6.68726 55.9839 7.36992 56.4959 8.24459C57.0079 9.10859 57.2639 10.0793 57.2639 11.1566C57.2639 12.2339 57.0079 13.2099 56.4959 14.0846C55.9839 14.9486 55.2799 15.6259 54.3839 16.1166C53.4985 16.6073 52.5012 16.8526 51.3919 16.8526ZM51.3919 15.7966C52.2772 15.7966 53.0772 15.5993 53.7919 15.2046C54.5065 14.7993 55.0665 14.2446 55.4719 13.5406C55.8772 12.8259 56.0799 12.0313 56.0799 11.1566C56.0799 10.2819 55.8772 9.49259 55.4719 8.78859C55.0665 8.07393 54.5065 7.51926 53.7919 7.12459C53.0772 6.71926 52.2772 6.51659 51.3919 6.51659C50.5065 6.51659 49.7012 6.71926 48.9759 7.12459C48.2612 7.51926 47.6959 8.07393 47.2799 8.78859C46.8745 9.49259 46.6719 10.2819 46.6719 11.1566C46.6719 12.0313 46.8745 12.8259 47.2799 13.5406C47.6959 14.2446 48.2612 14.7993 48.9759 15.2046C49.7012 15.5993 50.5065 15.7966 51.3919 15.7966ZM69.2778 5.55659V16.7566H68.3018L61.1018 7.66859V16.7566H59.9178V5.55659H60.8938L68.1098 14.6446V5.55659H69.2778ZM75.1094 6.58059H71.1734V5.55659H80.2294V6.58059H76.2934V16.7566H75.1094V6.58059ZM88.5824 13.7646H82.3424L80.9984 16.7566H79.7664L84.8864 5.55659H86.0544L91.1744 16.7566H89.9264L88.5824 13.7646ZM88.1504 12.8046L85.4624 6.78859L82.7744 12.8046H88.1504ZM97.7349 16.8526C96.6255 16.8526 95.6229 16.6073 94.7269 16.1166C93.8415 15.6259 93.1429 14.9486 92.6309 14.0846C92.1295 13.2099 91.8789 12.2339 91.8789 11.1566C91.8789 10.0793 92.1295 9.10859 92.6309 8.24459C93.1429 7.36992 93.8469 6.68726 94.7429 6.19659C95.6389 5.70592 96.6415 5.46059 97.7509 5.46059C98.5829 5.46059 99.3509 5.59926 100.055 5.87659C100.759 6.15392 101.356 6.55926 101.847 7.09259L101.095 7.84459C100.22 6.95926 99.1162 6.51659 97.7829 6.51659C96.8975 6.51659 96.0922 6.71926 95.3669 7.12459C94.6415 7.52992 94.0709 8.08459 93.6549 8.78859C93.2495 9.49259 93.0469 10.2819 93.0469 11.1566C93.0469 12.0313 93.2495 12.8206 93.6549 13.5246C94.0709 14.2286 94.6415 14.7833 95.3669 15.1886C96.0922 15.5939 96.8975 15.7966 97.7829 15.7966C99.1269 15.7966 100.231 15.3486 101.095 14.4526L101.847 15.2046C101.356 15.7379 100.754 16.1486 100.039 16.4366C99.3349 16.7139 98.5669 16.8526 97.7349 16.8526ZM106.406 6.58059H102.47V5.55659H111.526V6.58059H107.59V16.7566H106.406V6.58059Z" fill="#F06A22"/>
<line x1="460.323" y1="42.9126" x2="611.306" y2="42.9126" stroke="black" stroke-width="2"/>
<defs>
<linearGradient id="paint0_linear" x1="13.5094" y1="57.2704" x2="445.746" y2="57.2704" gradientUnits="userSpaceOnUse">
<stop stop-color="#1C52A4"/>
<stop offset="1" stop-color="#F06A22"/>
</linearGradient>
</defs>
</svg>
