<svg width="66" height="65" viewBox="0 0 66 65" fill="none" xmlns="http://www.w3.org/2000/svg">
<path d="M1.62217 0.994507C0.946719 0.994507 0.443448 1.47158 0.503379 2.05468L6.19778 57.415C6.25771 57.9981 6.83909 58.6033 7.49022 58.76L31.6543 64.5752C32.3052 64.7319 33.3702 64.7319 34.0213 64.5756L58.2589 58.7508C58.9098 58.5944 59.4919 57.9891 59.5518 57.4063L65.2556 2.05468C65.316 1.47158 64.8122 0.994507 64.1368 0.994507H1.62217ZM53.1287 13.6912C53.0749 14.2113 52.9818 15.1142 52.9219 15.6973L52.7718 17.1498C52.7114 17.7327 52.6254 18.5663 52.58 19.0021C52.5348 19.4381 52.4918 19.7947 52.4839 19.7947C52.4763 19.7947 51.9173 19.7947 51.2419 19.7947H34.1076C33.4321 19.7947 32.8738 19.7947 32.8665 19.7947C32.8591 19.7947 32.3003 19.7947 31.6249 19.7947H22.6009C21.9254 19.7947 21.4221 20.2717 21.4821 20.8548L22.0084 25.9545C22.0684 26.5374 22.6704 27.0147 23.3458 27.0147H31.6251C32.3006 27.0147 32.8593 27.0147 32.8667 27.0147C32.8741 27.0147 33.4324 27.0147 34.1078 27.0147H48.3386C49.0141 27.0147 50.0594 27.0147 50.6615 27.0147C51.263 27.0147 51.711 27.4402 51.6565 27.9603C51.6017 28.4804 51.5081 29.3835 51.4482 29.9663L49.7556 46.4071C49.6952 46.9902 49.6188 47.7351 49.5859 48.0625C49.5522 48.3897 48.9925 48.7854 48.3416 48.9419L34.0631 52.3734C33.4122 52.5297 32.8714 52.6591 32.8613 52.661C32.8512 52.6629 32.3106 52.5363 31.6595 52.3798L17.3658 48.9421C16.7149 48.7857 16.1333 48.1804 16.0733 47.5973L15.1532 38.6465C15.0933 38.0635 15.5971 37.5864 16.2725 37.5864H17.577C18.2524 37.5864 19.3577 37.5864 20.0332 37.5864H21.9785C22.6539 37.5864 23.2554 38.0635 23.3159 38.6465L23.6767 42.1504C23.7366 42.7335 24.319 43.3354 24.9713 43.488L31.6573 45.0529C32.3091 45.2056 32.8451 45.3305 32.848 45.3305C32.851 45.3305 33.3867 45.2053 34.0388 45.0527L40.7368 43.484C41.3887 43.3313 41.9715 42.7293 42.0319 42.1464L42.7582 35.1263C42.8186 34.5432 42.3154 34.0661 41.6399 34.0661H34.1078C33.4324 34.0661 32.8741 34.0661 32.8667 34.0661C32.8593 34.0661 32.3006 34.0661 31.6251 34.0661H15.9083C15.2328 34.0661 14.6313 33.5888 14.5714 33.0059L12.7892 15.697C12.7292 15.1139 12.6362 14.2113 12.5824 13.691C12.5291 13.1709 13.0377 12.7454 13.7132 12.7454H31.6251C32.3006 12.7454 32.8593 12.7454 32.8667 12.7454C32.8741 12.7454 33.4324 12.7454 34.1078 12.7454H51.9981C52.6733 12.7454 53.1822 13.1709 53.1287 13.6912Z" fill="black"/>
</svg>
