<svg width="66" height="65" viewBox="0 0 66 65" fill="none" xmlns="http://www.w3.org/2000/svg">
<path d="M65.2744 1.47703C64.9799 1.21153 64.6856 0.946167 64.0969 0.946167H2.27841C1.98409 0.946167 1.39543 1.21153 1.10097 1.47703C0.806503 1.74252 0.806641 2.00789 0.806641 2.53862L6.69415 55.6205C6.69415 56.1514 7.28294 56.6821 7.57713 56.6821L34.0707 64.6444H34.6595H35.2483L58.7981 56.6821C59.3869 56.4168 59.681 56.1513 59.681 55.6205L65.5686 2.53862C65.5688 2.27338 65.5688 1.7424 65.2744 1.47703ZM33.1877 48.9853C33.1877 49.2507 32.8933 49.7816 32.5989 50.0469C32.3046 50.3123 31.9928 50.3475 31.6986 50.3475L31.4216 50.3123L21.1185 47.6583C20.5297 47.3929 20.2355 47.1274 19.9411 46.5967L18.4692 39.9613C18.1748 39.1652 18.7635 38.6343 19.6466 38.3689C20.5296 38.1035 21.1185 38.6343 21.413 39.4305L22.5904 45.2694L30.2442 47.1274V17.1362H14.0534C13.1705 17.1362 12.5815 16.6054 12.5815 15.8091C12.5815 15.013 13.1703 14.482 14.0534 14.482H31.7158C32.5988 14.482 33.1877 15.0129 33.1877 15.8091V48.9853ZM53.7938 16.0745L52.3219 21.3827C52.0276 22.1788 51.4275 22.572 50.5557 22.4443C49.6369 22.31 49.2851 21.6437 49.3782 20.8517C49.4892 19.907 50.2612 17.1361 50.2612 17.1361H38.7806V30.4066H49.0838C49.3781 30.4066 49.9667 30.672 50.2612 30.9375C50.5555 31.2028 50.5555 31.7336 50.5555 31.9991L47.6118 46.5965C47.6118 47.1274 47.0231 47.3926 46.7289 47.6581L37.8977 50.3122C37.6033 50.3122 36.5338 50.6792 35.837 49.5161C35.5426 48.72 36.1313 48.189 36.7199 47.9235L44.668 45.5348L47.023 33.3259H37.0143C36.1313 33.3259 35.5424 32.795 35.5424 31.9988V16.0743C35.5424 15.2781 36.1311 14.7472 37.0143 14.7472H51.733C52.3218 14.7472 52.7247 14.8606 53.1094 15.0043C53.9256 15.3092 53.7938 15.8091 53.7938 16.0745Z" fill="black"/>
</svg>
