<svg width="231" height="53" viewBox="0 0 231 53" fill="none" xmlns="http://www.w3.org/2000/svg">
<rect x="0.72168" y="0.581238" width="229.009" height="50.994" rx="25.497" fill="#235AAC"/>
<rect x="0.72168" y="0.581238" width="229.009" height="50.994" rx="25.497" fill="url(#paint0_linear)"/>
<rect x="0.72168" y="0.581238" width="229.009" height="50.994" rx="25.497" fill="url(#paint1_linear)" fill-opacity="0.6"/>
<rect x="0.72168" y="0.581238" width="229.009" height="50.994" rx="25.497" stroke="url(#paint2_radial)"/>
<path d="M44.7983 30.1888C44.0237 30.1888 43.2723 30.0861 42.5443 29.8808C41.8257 29.6661 41.247 29.3908 40.8083 29.0548L41.5783 27.3468C41.9983 27.6548 42.4977 27.9021 43.0763 28.0888C43.655 28.2755 44.2337 28.3688 44.8123 28.3688C45.4563 28.3688 45.9323 28.2755 46.2403 28.0888C46.5483 27.8928 46.7023 27.6361 46.7023 27.3188C46.7023 27.0855 46.609 26.8941 46.4223 26.7448C46.245 26.5861 46.0117 26.4601 45.7223 26.3668C45.4423 26.2735 45.0597 26.1708 44.5743 26.0588C43.8277 25.8815 43.2163 25.7041 42.7403 25.5268C42.2643 25.3495 41.8537 25.0648 41.5083 24.6728C41.1723 24.2808 41.0043 23.7581 41.0043 23.1048C41.0043 22.5355 41.1583 22.0221 41.4663 21.5648C41.7743 21.0981 42.2363 20.7295 42.8523 20.4588C43.4777 20.1881 44.2383 20.0528 45.1343 20.0528C45.7597 20.0528 46.371 20.1275 46.9683 20.2768C47.5657 20.4261 48.0883 20.6408 48.5363 20.9208L47.8363 22.6428C46.931 22.1295 46.0257 21.8728 45.1203 21.8728C44.4857 21.8728 44.0143 21.9755 43.7063 22.1808C43.4077 22.3861 43.2583 22.6568 43.2583 22.9928C43.2583 23.3288 43.431 23.5808 43.7763 23.7488C44.131 23.9075 44.6677 24.0661 45.3863 24.2248C46.133 24.4021 46.7443 24.5795 47.2203 24.7568C47.6963 24.9341 48.1023 25.2141 48.4383 25.5968C48.7837 25.9795 48.9563 26.4975 48.9563 27.1508C48.9563 27.7108 48.7977 28.2241 48.4803 28.6908C48.1723 29.1481 47.7057 29.5121 47.0803 29.7828C46.455 30.0535 45.6943 30.1888 44.7983 30.1888ZM53.5894 22.0688H50.4534V20.2208H58.9934V22.0688H55.8574V30.0208H53.5894V22.0688ZM67.3655 27.9208H62.8155L61.9475 30.0208H59.6235L63.9915 20.2208H66.2315L70.6135 30.0208H68.2335L67.3655 27.9208ZM66.6515 26.1988L65.0975 22.4468L63.5435 26.1988H66.6515ZM79.0642 30.0208L77.1742 27.2908H77.0622H75.0882V30.0208H72.8202V20.2208H77.0622C77.9302 20.2208 78.6816 20.3655 79.3162 20.6548C79.9602 20.9441 80.4549 21.3548 80.8002 21.8868C81.1456 22.4188 81.3182 23.0488 81.3182 23.7768C81.3182 24.5048 81.1409 25.1348 80.7862 25.6668C80.4409 26.1895 79.9462 26.5908 79.3022 26.8708L81.5002 30.0208H79.0642ZM79.0222 23.7768C79.0222 23.2261 78.8449 22.8061 78.4902 22.5168C78.1356 22.2181 77.6176 22.0688 76.9362 22.0688H75.0882V25.4848H76.9362C77.6176 25.4848 78.1356 25.3355 78.4902 25.0368C78.8449 24.7381 79.0222 24.3181 79.0222 23.7768ZM86.1984 22.0688H83.0624V20.2208H91.6024V22.0688H88.4664V30.0208H86.1984V22.0688ZM105.622 27.9208H101.072L100.204 30.0208H97.8796L102.248 20.2208H104.488L108.87 30.0208H106.49L105.622 27.9208ZM104.908 26.1988L103.354 22.4468L101.8 26.1988H104.908ZM120.473 20.2208C121.341 20.2208 122.092 20.3655 122.727 20.6548C123.371 20.9441 123.866 21.3548 124.211 21.8868C124.556 22.4188 124.729 23.0488 124.729 23.7768C124.729 24.4955 124.556 25.1255 124.211 25.6668C123.866 26.1988 123.371 26.6095 122.727 26.8988C122.092 27.1788 121.341 27.3188 120.473 27.3188H118.499V30.0208H116.231V20.2208H120.473ZM120.347 25.4708C121.028 25.4708 121.546 25.3261 121.901 25.0368C122.256 24.7381 122.433 24.3181 122.433 23.7768C122.433 23.2261 122.256 22.8061 121.901 22.5168C121.546 22.2181 121.028 22.0688 120.347 22.0688H118.499V25.4708H120.347ZM133.782 30.0208L131.892 27.2908H131.78H129.806V30.0208H127.538V20.2208H131.78C132.648 20.2208 133.4 20.3655 134.034 20.6548C134.678 20.9441 135.173 21.3548 135.518 21.8868C135.864 22.4188 136.036 23.0488 136.036 23.7768C136.036 24.5048 135.859 25.1348 135.504 25.6668C135.159 26.1895 134.664 26.5908 134.02 26.8708L136.218 30.0208H133.782ZM133.74 23.7768C133.74 23.2261 133.563 22.8061 133.208 22.5168C132.854 22.2181 132.336 22.0688 131.654 22.0688H129.806V25.4848H131.654C132.336 25.4848 132.854 25.3355 133.208 25.0368C133.563 24.7381 133.74 24.3181 133.74 23.7768ZM143.769 30.1888C142.752 30.1888 141.833 29.9695 141.011 29.5308C140.199 29.0921 139.56 28.4901 139.093 27.7248C138.636 26.9501 138.407 26.0821 138.407 25.1208C138.407 24.1595 138.636 23.2961 139.093 22.5308C139.56 21.7561 140.199 21.1495 141.011 20.7108C141.833 20.2721 142.752 20.0528 143.769 20.0528C144.787 20.0528 145.701 20.2721 146.513 20.7108C147.325 21.1495 147.965 21.7561 148.431 22.5308C148.898 23.2961 149.131 24.1595 149.131 25.1208C149.131 26.0821 148.898 26.9501 148.431 27.7248C147.965 28.4901 147.325 29.0921 146.513 29.5308C145.701 29.9695 144.787 30.1888 143.769 30.1888ZM143.769 28.2568C144.348 28.2568 144.871 28.1261 145.337 27.8648C145.804 27.5941 146.168 27.2208 146.429 26.7448C146.7 26.2688 146.835 25.7275 146.835 25.1208C146.835 24.5141 146.7 23.9728 146.429 23.4968C146.168 23.0208 145.804 22.6521 145.337 22.3908C144.871 22.1201 144.348 21.9848 143.769 21.9848C143.191 21.9848 142.668 22.1201 142.201 22.3908C141.735 22.6521 141.366 23.0208 141.095 23.4968C140.834 23.9728 140.703 24.5141 140.703 25.1208C140.703 25.7275 140.834 26.2688 141.095 26.7448C141.366 27.2208 141.735 27.5941 142.201 27.8648C142.668 28.1261 143.191 28.2568 143.769 28.2568ZM153.627 30.1888C152.964 30.1888 152.353 30.0675 151.793 29.8248C151.242 29.5728 150.789 29.2181 150.435 28.7608L151.695 27.2488C152.227 27.9675 152.833 28.3268 153.515 28.3268C154.439 28.3268 154.901 27.7855 154.901 26.7028V22.0408H151.457V20.2208H157.155V26.5768C157.155 27.7808 156.856 28.6861 156.259 29.2928C155.661 29.8901 154.784 30.1888 153.627 30.1888ZM168.173 28.2008V30.0208H160.585V20.2208H167.991V22.0408H162.839V24.1688H167.389V25.9328H162.839V28.2008H168.173ZM175.83 30.1888C174.831 30.1888 173.926 29.9741 173.114 29.5448C172.311 29.1061 171.677 28.5041 171.21 27.7388C170.753 26.9641 170.524 26.0915 170.524 25.1208C170.524 24.1501 170.753 23.2821 171.21 22.5168C171.677 21.7421 172.311 21.1401 173.114 20.7108C173.926 20.2721 174.836 20.0528 175.844 20.0528C176.693 20.0528 177.459 20.2021 178.14 20.5008C178.831 20.7995 179.409 21.2288 179.876 21.7888L178.42 23.1328C177.757 22.3675 176.936 21.9848 175.956 21.9848C175.349 21.9848 174.808 22.1201 174.332 22.3908C173.856 22.6521 173.483 23.0208 173.212 23.4968C172.951 23.9728 172.82 24.5141 172.82 25.1208C172.82 25.7275 172.951 26.2688 173.212 26.7448C173.483 27.2208 173.856 27.5941 174.332 27.8648C174.808 28.1261 175.349 28.2568 175.956 28.2568C176.936 28.2568 177.757 27.8695 178.42 27.0948L179.876 28.4388C179.409 29.0081 178.831 29.4421 178.14 29.7408C177.449 30.0395 176.679 30.1888 175.83 30.1888ZM184.532 22.0688H181.396V20.2208H189.936V22.0688H186.8V30.0208H184.532V22.0688Z" fill="white"/>
<defs>
<linearGradient id="paint0_linear" x1="92.5611" y1="8.55101" x2="77.6495" y2="55.8004" gradientUnits="userSpaceOnUse">
<stop stop-color="#ED6A23"/>
<stop offset="0.609375" stop-color="#98635D" stop-opacity="0.578218"/>
<stop offset="1" stop-color="#235AAC" stop-opacity="0"/>
</linearGradient>
<linearGradient id="paint1_linear" x1="115.226" y1="-26.5066" x2="115.226" y2="52.0752" gradientUnits="userSpaceOnUse">
<stop offset="0.572917" stop-color="#F0E811"/>
<stop offset="1" stop-color="white" stop-opacity="0"/>
</linearGradient>
<radialGradient id="paint2_radial" cx="0" cy="0" r="1" gradientUnits="userSpaceOnUse" gradientTransform="translate(115.226 -8.19053) rotate(90) scale(60.2657 266.602)">
<stop stop-color="white"/>
<stop offset="1" stop-color="white" stop-opacity="0"/>
</radialGradient>
</defs>
</svg>
