<svg width="41" height="41" viewBox="0 0 41 41" fill="none" xmlns="http://www.w3.org/2000/svg">
<path d="M39.7533 20.4334C39.7533 30.962 31.1023 39.5084 20.4166 39.5084C9.73091 39.5084 1.07983 30.962 1.07983 20.4334C1.07983 9.9048 9.73091 1.3584 20.4166 1.3584C31.1023 1.3584 39.7533 9.9048 39.7533 20.4334Z" fill="white" stroke="#EA6925"/>
<path d="M31.8981 21.2644C32.0934 21.0692 32.0934 20.7526 31.8981 20.5573L28.7161 17.3754C28.5209 17.1801 28.2043 17.1801 28.009 17.3754C27.8138 17.5706 27.8138 17.8872 28.009 18.0825L30.8375 20.9109L28.009 23.7393C27.8138 23.9346 27.8138 24.2512 28.009 24.4464C28.2043 24.6417 28.5209 24.6417 28.7161 24.4464L31.8981 21.2644ZM10.2563 21.4109L31.5446 21.4109L31.5446 20.4109L10.2563 20.4109L10.2563 21.4109Z" fill="#EA6925"/>
</svg>
