<svg width="141" height="53" viewBox="0 0 141 53" fill="none" xmlns="http://www.w3.org/2000/svg">
<rect x="0.00830078" width="140.874" height="53" rx="8" fill="#ED6A23"/>
<rect x="0.00830078" width="140.874" height="53" rx="8" fill="url(#paint0_linear)"/>
<path d="M36.2429 33H34.1909L28.0169 23.622V33H25.9649V20.31H28.0169L34.1909 29.724V20.31H36.2429V33ZM47.9426 27.564C47.9426 27.9 47.9186 28.194 47.8706 28.446H40.2386C40.2746 29.466 40.5566 30.222 41.0846 30.714C41.6126 31.206 42.2666 31.452 43.0466 31.452C43.7306 31.452 44.3066 31.278 44.7746 30.93C45.2546 30.582 45.5486 30.12 45.6566 29.544H47.8526C47.7206 30.24 47.4446 30.858 47.0246 31.398C46.6046 31.938 46.0586 32.364 45.3866 32.676C44.7146 32.976 43.9646 33.126 43.1366 33.126C42.1766 33.126 41.3246 32.922 40.5806 32.514C39.8486 32.106 39.2726 31.518 38.8526 30.75C38.4326 29.982 38.2226 29.076 38.2226 28.032C38.2226 27 38.4326 26.1 38.8526 25.332C39.2726 24.564 39.8486 23.976 40.5806 23.568C41.3246 23.16 42.1766 22.956 43.1366 22.956C44.1086 22.956 44.9546 23.16 45.6746 23.568C46.4066 23.964 46.9646 24.516 47.3486 25.224C47.7446 25.92 47.9426 26.7 47.9426 27.564ZM45.8726 27.51C45.8966 26.862 45.7826 26.322 45.5306 25.89C45.2906 25.446 44.9546 25.122 44.5226 24.918C44.1026 24.702 43.6406 24.594 43.1366 24.594C42.3326 24.594 41.6606 24.84 41.1206 25.332C40.5806 25.824 40.2866 26.55 40.2386 27.51H45.8726ZM55.7919 33L53.3619 29.49L51.2379 33H48.9519L52.2279 27.852L48.9159 23.082H51.2379L53.6139 26.502L55.7199 23.082H57.9879L54.7119 28.086L58.1139 33H55.7919ZM64.5251 31.218V33H63.2651C62.2091 33 61.4051 32.748 60.8531 32.244C60.3131 31.728 60.0431 30.876 60.0431 29.688V24.828H58.6211V23.082H60.0431V20.616H62.1131V23.082H64.5071V24.828H62.1131V29.724C62.1131 30.288 62.2151 30.678 62.4191 30.894C62.6351 31.11 63.0071 31.218 63.5351 31.218H64.5251Z" fill="white"/>
<path d="M101.339 32.5L108.753 26.5L101.339 20.5" stroke="#D3D6E4" stroke-width="2" stroke-linecap="round" stroke-linejoin="round"/>
<path d="M92.6885 32.5L100.103 26.5L92.6885 20.5" stroke="#D3D6E4" stroke-opacity="0.35" stroke-width="2" stroke-linecap="round" stroke-linejoin="round"/>
<defs>
<linearGradient id="paint0_linear" x1="196.49" y1="-1.46846e-06" x2="152.779" y2="92.0831" gradientUnits="userSpaceOnUse">
<stop stop-color="#0C92D9"/>
<stop offset="1" stop-color="#ED6A23"/>
</linearGradient>
</defs>
</svg>
