<svg width="192" height="53" viewBox="0 0 192 53" fill="none" xmlns="http://www.w3.org/2000/svg">
<rect width="191.539" height="53" rx="8" fill="#ED6A23"/>
<rect width="191.539" height="53" rx="8" fill="url(#paint0_linear)"/>
<path d="M35.8362 32.5L28.4218 26.5L35.8362 20.5" stroke="#D3D6E4" stroke-width="2" stroke-linecap="round" stroke-linejoin="round"/>
<path d="M44.4863 32.5L37.0719 26.5L44.4863 20.5" stroke="#D3D6E4" stroke-opacity="0.35" stroke-width="2" stroke-linecap="round" stroke-linejoin="round"/>
<path d="M66.3165 28.068V33H64.2645V20.292H68.5845C70.0485 20.292 71.1465 20.64 71.8785 21.336C72.6225 22.032 72.9945 22.986 72.9945 24.198C72.9945 25.398 72.6165 26.346 71.8605 27.042C71.1045 27.726 70.0125 28.068 68.5845 28.068H66.3165ZM68.3685 26.394C70.0605 26.394 70.9065 25.662 70.9065 24.198C70.9065 23.478 70.7025 22.932 70.2945 22.56C69.8985 22.176 69.2565 21.984 68.3685 21.984H66.3165V26.394H68.3685ZM76.8458 25.026C77.1818 24.378 77.6618 23.868 78.2858 23.496C78.9098 23.112 79.6298 22.92 80.4458 22.92V25.152H79.8338C78.9338 25.152 78.2078 25.374 77.6558 25.818C77.1158 26.25 76.8458 26.97 76.8458 27.978V33H74.7938V23.082H76.8458V25.026ZM91.1992 27.564C91.1992 27.9 91.1752 28.194 91.1272 28.446H83.4952C83.5312 29.466 83.8132 30.222 84.3412 30.714C84.8692 31.206 85.5232 31.452 86.3032 31.452C86.9872 31.452 87.5632 31.278 88.0312 30.93C88.5112 30.582 88.8052 30.12 88.9132 29.544H91.1092C90.9772 30.24 90.7012 30.858 90.2812 31.398C89.8612 31.938 89.3152 32.364 88.6432 32.676C87.9712 32.976 87.2212 33.126 86.3932 33.126C85.4332 33.126 84.5812 32.922 83.8372 32.514C83.1052 32.106 82.5292 31.518 82.1092 30.75C81.6892 29.982 81.4792 29.076 81.4792 28.032C81.4792 27 81.6892 26.1 82.1092 25.332C82.5292 24.564 83.1052 23.976 83.8372 23.568C84.5812 23.16 85.4332 22.956 86.3932 22.956C87.3652 22.956 88.2112 23.16 88.9312 23.568C89.6632 23.964 90.2212 24.516 90.6052 25.224C91.0012 25.92 91.1992 26.7 91.1992 27.564ZM89.1292 27.51C89.1532 26.862 89.0392 26.322 88.7872 25.89C88.5472 25.446 88.2112 25.122 87.7792 24.918C87.3592 24.702 86.8972 24.594 86.3932 24.594C85.5892 24.594 84.9172 24.84 84.3772 25.332C83.8372 25.824 83.5432 26.55 83.4952 27.51H89.1292ZM97.2485 30.876L100.056 23.082H102.252L98.4725 33H95.9885L92.2085 23.082H94.4045L97.2485 30.876ZM103.475 20.202C103.475 19.854 103.595 19.566 103.835 19.338C104.075 19.11 104.393 18.996 104.789 18.996C105.185 18.996 105.503 19.11 105.743 19.338C105.995 19.566 106.121 19.854 106.121 20.202C106.121 20.55 105.995 20.832 105.743 21.048C105.503 21.264 105.185 21.372 104.789 21.372C104.393 21.372 104.075 21.264 103.835 21.048C103.595 20.832 103.475 20.55 103.475 20.202ZM105.815 23.082V33H103.763V23.082H105.815ZM112.834 22.956C113.794 22.956 114.658 23.16 115.426 23.568C116.194 23.976 116.794 24.564 117.226 25.332C117.658 26.1 117.874 27 117.874 28.032C117.874 29.076 117.658 29.982 117.226 30.75C116.794 31.518 116.194 32.106 115.426 32.514C114.658 32.922 113.794 33.126 112.834 33.126C111.874 33.126 111.01 32.922 110.242 32.514C109.486 32.106 108.886 31.518 108.442 30.75C108.01 29.97 107.794 29.064 107.794 28.032C107.794 27 108.01 26.1 108.442 25.332C108.886 24.564 109.486 23.976 110.242 23.568C111.01 23.16 111.874 22.956 112.834 22.956ZM112.834 24.738C112.306 24.738 111.82 24.858 111.376 25.098C110.932 25.338 110.572 25.71 110.296 26.214C110.032 26.706 109.9 27.312 109.9 28.032C109.9 28.764 110.032 29.376 110.296 29.868C110.572 30.36 110.932 30.726 111.376 30.966C111.82 31.206 112.306 31.326 112.834 31.326C113.362 31.326 113.848 31.206 114.292 30.966C114.736 30.726 115.09 30.36 115.354 29.868C115.63 29.376 115.768 28.764 115.768 28.032C115.768 27.312 115.63 26.706 115.354 26.214C115.09 25.71 114.736 25.338 114.292 25.098C113.848 24.858 113.362 24.738 112.834 24.738ZM128.99 23.082V33H126.92V30.84C126.668 31.572 126.23 32.142 125.606 32.55C124.982 32.946 124.256 33.144 123.428 33.144C122.276 33.144 121.352 32.772 120.656 32.028C119.96 31.284 119.612 30.222 119.612 28.842V23.082H121.664V28.626C121.664 29.526 121.892 30.222 122.348 30.714C122.804 31.194 123.428 31.434 124.22 31.434C125.036 31.434 125.69 31.17 126.182 30.642C126.674 30.114 126.92 29.346 126.92 28.338V23.082H128.99ZM134.706 22.956C135.87 22.956 136.8 23.256 137.496 23.856C138.204 24.444 138.636 25.236 138.792 26.232H136.848C136.764 25.692 136.53 25.26 136.146 24.936C135.774 24.6 135.276 24.432 134.652 24.432C134.136 24.432 133.734 24.558 133.446 24.81C133.17 25.05 133.032 25.38 133.032 25.8C133.032 26.112 133.134 26.364 133.338 26.556C133.542 26.748 133.794 26.898 134.094 27.006C134.406 27.114 134.844 27.234 135.408 27.366C136.152 27.534 136.752 27.708 137.208 27.888C137.676 28.068 138.072 28.356 138.396 28.752C138.732 29.136 138.9 29.664 138.9 30.336C138.9 31.164 138.582 31.836 137.946 32.352C137.322 32.868 136.476 33.126 135.408 33.126C134.172 33.126 133.17 32.838 132.402 32.262C131.646 31.686 131.19 30.882 131.034 29.85H133.032C133.092 30.39 133.332 30.828 133.752 31.164C134.172 31.5 134.724 31.668 135.408 31.668C135.9 31.668 136.284 31.542 136.56 31.29C136.848 31.026 136.992 30.696 136.992 30.3C136.992 29.952 136.884 29.676 136.668 29.472C136.452 29.268 136.182 29.112 135.858 29.004C135.534 28.884 135.09 28.764 134.526 28.644C133.806 28.476 133.218 28.308 132.762 28.14C132.318 27.972 131.934 27.702 131.61 27.33C131.298 26.946 131.142 26.43 131.142 25.782C131.142 24.942 131.454 24.264 132.078 23.748C132.714 23.22 133.59 22.956 134.706 22.956Z" fill="white"/>
<defs>
<linearGradient id="paint0_linear" x1="267.146" y1="-1.46846e-06" x2="232.034" y2="100.573" gradientUnits="userSpaceOnUse">
<stop stop-color="#0C92D9"/>
<stop offset="1" stop-color="#ED6A23"/>
</linearGradient>
</defs>
</svg>
