<svg width="544" height="76" viewBox="0 0 544 76" fill="none" xmlns="http://www.w3.org/2000/svg">
<path d="M20.0098 47.386H8.30978L6.07778 52.786H0.101781L11.3338 27.586H17.0938L28.3618 52.786H22.2418L20.0098 47.386ZM18.1738 42.958L14.1778 33.31L10.1818 42.958H18.1738ZM49.4803 39.682C50.9203 40.138 52.0483 40.906 52.8643 41.986C53.6803 43.042 54.0883 44.35 54.0883 45.91C54.0883 48.118 53.2243 49.822 51.4963 51.022C49.7923 52.198 47.2963 52.786 44.0083 52.786H30.9763V27.586H43.2883C46.3603 27.586 48.7123 28.174 50.3443 29.35C52.0003 30.526 52.8283 32.122 52.8283 34.138C52.8283 35.362 52.5283 36.454 51.9283 37.414C51.3523 38.374 50.5363 39.13 49.4803 39.682ZM36.7723 31.978V37.918H42.5683C44.0083 37.918 45.1003 37.666 45.8443 37.162C46.5883 36.658 46.9603 35.914 46.9603 34.93C46.9603 33.946 46.5883 33.214 45.8443 32.734C45.1003 32.23 44.0083 31.978 42.5683 31.978H36.7723ZM43.5763 48.394C45.1123 48.394 46.2643 48.142 47.0323 47.638C47.8243 47.134 48.2203 46.354 48.2203 45.298C48.2203 43.21 46.6723 42.166 43.5763 42.166H36.7723V48.394H43.5763ZM70.7076 53.218C68.0916 53.218 65.7276 52.654 63.6156 51.526C61.5276 50.398 59.8836 48.85 58.6836 46.882C57.5076 44.89 56.9196 42.658 56.9196 40.186C56.9196 37.714 57.5076 35.494 58.6836 33.526C59.8836 31.534 61.5276 29.974 63.6156 28.846C65.7276 27.718 68.0916 27.154 70.7076 27.154C73.3236 27.154 75.6756 27.718 77.7636 28.846C79.8516 29.974 81.4956 31.534 82.6956 33.526C83.8956 35.494 84.4956 37.714 84.4956 40.186C84.4956 42.658 83.8956 44.89 82.6956 46.882C81.4956 48.85 79.8516 50.398 77.7636 51.526C75.6756 52.654 73.3236 53.218 70.7076 53.218ZM70.7076 48.25C72.1956 48.25 73.5396 47.914 74.7396 47.242C75.9396 46.546 76.8756 45.586 77.5476 44.362C78.2436 43.138 78.5916 41.746 78.5916 40.186C78.5916 38.626 78.2436 37.234 77.5476 36.01C76.8756 34.786 75.9396 33.838 74.7396 33.166C73.5396 32.47 72.1956 32.122 70.7076 32.122C69.2196 32.122 67.8756 32.47 66.6756 33.166C65.4756 33.838 64.5276 34.786 63.8316 36.01C63.1596 37.234 62.8236 38.626 62.8236 40.186C62.8236 41.746 63.1596 43.138 63.8316 44.362C64.5276 45.586 65.4756 46.546 66.6756 47.242C67.8756 47.914 69.2196 48.25 70.7076 48.25ZM100.075 53.218C96.4746 53.218 93.6666 52.222 91.6506 50.23C89.6586 48.238 88.6626 45.394 88.6626 41.698V27.586H94.4946V41.482C94.4946 45.994 96.3666 48.25 100.111 48.25C101.935 48.25 103.327 47.71 104.287 46.63C105.247 45.526 105.727 43.81 105.727 41.482V27.586H111.487V41.698C111.487 45.394 110.479 48.238 108.463 50.23C106.471 52.222 103.675 53.218 100.075 53.218ZM122.048 32.338H113.984V27.586H135.944V32.338H127.88V52.786H122.048V32.338ZM166.305 39.79H171.633V50.014C170.265 51.046 168.681 51.838 166.881 52.39C165.081 52.942 163.269 53.218 161.445 53.218C158.829 53.218 156.477 52.666 154.389 51.562C152.301 50.434 150.657 48.886 149.457 46.918C148.281 44.926 147.693 42.682 147.693 40.186C147.693 37.69 148.281 35.458 149.457 33.49C150.657 31.498 152.313 29.95 154.425 28.846C156.537 27.718 158.913 27.154 161.553 27.154C163.761 27.154 165.765 27.526 167.565 28.27C169.365 29.014 170.877 30.094 172.101 31.51L168.357 34.966C166.557 33.07 164.385 32.122 161.841 32.122C160.233 32.122 158.805 32.458 157.557 33.13C156.309 33.802 155.337 34.75 154.641 35.974C153.945 37.198 153.597 38.602 153.597 40.186C153.597 41.746 153.945 43.138 154.641 44.362C155.337 45.586 156.297 46.546 157.521 47.242C158.769 47.914 160.185 48.25 161.769 48.25C163.449 48.25 164.961 47.89 166.305 47.17V39.79ZM193.647 47.386H181.947L179.715 52.786H173.738L184.971 27.586H190.731L201.999 52.786H195.879L193.647 47.386ZM191.811 42.958L187.815 33.31L183.819 42.958H191.811ZM223.117 39.682C224.557 40.138 225.685 40.906 226.501 41.986C227.317 43.042 227.725 44.35 227.725 45.91C227.725 48.118 226.861 49.822 225.133 51.022C223.429 52.198 220.933 52.786 217.645 52.786H204.613V27.586H216.925C219.997 27.586 222.349 28.174 223.981 29.35C225.637 30.526 226.465 32.122 226.465 34.138C226.465 35.362 226.165 36.454 225.565 37.414C224.989 38.374 224.173 39.13 223.117 39.682ZM210.409 31.978V37.918H216.205C217.645 37.918 218.737 37.666 219.481 37.162C220.225 36.658 220.597 35.914 220.597 34.93C220.597 33.946 220.225 33.214 219.481 32.734C218.737 32.23 217.645 31.978 216.205 31.978H210.409ZM217.213 48.394C218.749 48.394 219.901 48.142 220.669 47.638C221.461 47.134 221.857 46.354 221.857 45.298C221.857 43.21 220.309 42.166 217.213 42.166H210.409V48.394H217.213ZM248.196 52.786L243.336 45.766H243.048H237.972V52.786H232.14V27.586H243.048C245.28 27.586 247.212 27.958 248.844 28.702C250.5 29.446 251.772 30.502 252.66 31.87C253.548 33.238 253.992 34.858 253.992 36.73C253.992 38.602 253.536 40.222 252.624 41.59C251.736 42.934 250.464 43.966 248.808 44.686L254.46 52.786H248.196ZM248.088 36.73C248.088 35.314 247.632 34.234 246.72 33.49C245.808 32.722 244.476 32.338 242.724 32.338H237.972V41.122H242.724C244.476 41.122 245.808 40.738 246.72 39.97C247.632 39.202 248.088 38.122 248.088 36.73ZM258.613 27.586H264.445V52.786H258.613V27.586ZM289.938 48.106V52.786H270.426V27.586H289.47V32.266H276.222V37.738H287.922V42.274H276.222V48.106H289.938ZM294.578 27.586H300.41V48.034H313.046V52.786H294.578V27.586Z" fill="url(#paint0_linear)"/>
<path d="M36.2013 15.2941V16.3181H28.2813V5.11811H35.9613V6.14211H29.4653V10.1261H35.2573V11.1341H29.4653V15.2941H36.2013ZM45.8678 16.3181L42.2518 11.3901L38.6518 16.3181H37.2918L41.5478 10.5581L37.5638 5.11811H38.9238L42.2998 9.69411L45.6598 5.11811H46.9398L42.9718 10.5261L47.2438 16.3181H45.8678ZM53.1452 5.11811C54.5745 5.11811 55.6945 5.45945 56.5052 6.14211C57.3158 6.82478 57.7212 7.76345 57.7212 8.95812C57.7212 10.1528 57.3158 11.0914 56.5052 11.7741C55.6945 12.4461 54.5745 12.7821 53.1452 12.7821H50.1372V16.3181H48.9532V5.11811H53.1452ZM53.1132 11.7421C54.2225 11.7421 55.0705 11.5021 55.6572 11.0221C56.2438 10.5314 56.5372 9.84345 56.5372 8.95812C56.5372 8.05145 56.2438 7.35811 55.6572 6.87811C55.0705 6.38745 54.2225 6.14211 53.1132 6.14211H50.1372V11.7421H53.1132ZM68.2013 15.2941V16.3181H60.2813V5.11811H67.9613V6.14211H61.4653V10.1261H67.2573V11.1341H61.4653V15.2941H68.2013ZM78.6324 16.3181L76.0724 12.7181C75.7844 12.7501 75.4857 12.7661 75.1764 12.7661H72.1684V16.3181H70.9844V5.11811H75.1764C76.6057 5.11811 77.7257 5.45945 78.5364 6.14211C79.3471 6.82478 79.7524 7.76345 79.7524 8.95812C79.7524 9.83278 79.5284 10.5741 79.0804 11.1821C78.6431 11.7794 78.0137 12.2114 77.1924 12.4781L79.9284 16.3181H78.6324ZM75.1444 11.7581C76.2537 11.7581 77.1017 11.5128 77.6884 11.0221C78.2751 10.5314 78.5684 9.84345 78.5684 8.95812C78.5684 8.05145 78.2751 7.35811 77.6884 6.87811C77.1017 6.38745 76.2537 6.14211 75.1444 6.14211H72.1684V11.7581H75.1444ZM82.5469 5.11811H83.7309V16.3181H82.5469V5.11811ZM95.295 15.2941V16.3181H87.375V5.11811H95.055V6.14211H88.559V10.1261H94.351V11.1341H88.559V15.2941H95.295ZM107.438 5.11811V16.3181H106.462L99.2622 7.23011V16.3181H98.0782V5.11811H99.0542L106.27 14.2061V5.11811H107.438ZM115.958 16.4141C114.848 16.4141 113.846 16.1688 112.95 15.6781C112.064 15.1874 111.366 14.5101 110.854 13.6461C110.352 12.7714 110.102 11.7954 110.102 10.7181C110.102 9.64078 110.352 8.67011 110.854 7.80612C111.366 6.93145 112.07 6.24878 112.966 5.75811C113.862 5.26745 114.864 5.02211 115.974 5.02211C116.806 5.02211 117.574 5.16078 118.278 5.43812C118.982 5.71545 119.579 6.12078 120.07 6.65411L119.318 7.40611C118.443 6.52078 117.339 6.07811 116.006 6.07811C115.12 6.07811 114.315 6.28078 113.59 6.68611C112.864 7.09145 112.294 7.64611 111.878 8.35011C111.472 9.05411 111.27 9.84345 111.27 10.7181C111.27 11.5928 111.472 12.3821 111.878 13.0861C112.294 13.7901 112.864 14.3448 113.59 14.7501C114.315 15.1554 115.12 15.3581 116.006 15.3581C117.35 15.3581 118.454 14.9101 119.318 14.0141L120.07 14.7661C119.579 15.2994 118.976 15.7101 118.262 15.9981C117.558 16.2754 116.79 16.4141 115.958 16.4141ZM130.514 15.2941V16.3181H122.594V5.11811H130.274V6.14211H123.778V10.1261H129.57V11.1341H123.778V15.2941H130.514Z" fill="#F06A22"/>
<line x1="349.248" y1="45.5565" x2="543.167" y2="45.5565" stroke="black" stroke-width="2"/>
<defs>
<linearGradient id="paint0_linear" x1="10.3052" y1="63.5574" x2="328.423" y2="63.5574" gradientUnits="userSpaceOnUse">
<stop stop-color="#1C52A4"/>
<stop offset="1" stop-color="#F06A22"/>
</linearGradient>
</defs>
</svg>
