<svg width="37" height="36" viewBox="0 0 37 36" fill="none" xmlns="http://www.w3.org/2000/svg">
<path d="M18.2371 0.0458984C3.71224 0.0458984 0.0150146 3.68239 0.0150146 17.9686C0.0150146 32.2549 3.71224 35.8914 18.2371 35.8914C32.7619 35.8914 36.4591 32.2549 36.4591 17.9686C36.4591 3.68239 32.7619 0.0458984 18.2371 0.0458984Z" fill="#3B5998"/>
<path d="M28.2724 18.2281H23.5189V14.8514C23.5189 13.2929 24.047 12.2539 26.1597 12.2539H28.2724C28.8006 12.2539 29.0647 11.9941 29.0647 11.4746V8.09785C29.0647 7.57835 28.8006 7.3186 28.2724 7.3186H24.8393C20.878 7.3186 17.973 9.65635 17.973 14.0721V18.2281H14.804C14.2758 18.2281 14.0117 18.4879 14.0117 19.0074V22.9036C14.0117 23.4231 14.2758 23.6829 14.804 23.6829H17.973V35.8911H18.2371C20.0857 35.8911 21.9343 35.8911 23.5189 35.6314V23.4231H27.7443C28.0083 23.4231 28.5365 23.1634 28.5365 22.6439L29.0647 19.0074C29.0647 18.4879 28.8006 18.2281 28.2724 18.2281Z" fill="white"/>
</svg>
