<svg width="26" height="26" viewBox="0 0 26 26" fill="none" xmlns="http://www.w3.org/2000/svg">
<path d="M12.8215 0C2.60147 0 0 2.55874 0 12.6109C0 22.6631 2.60147 25.2218 12.8215 25.2218C23.0416 25.2218 25.643 22.6631 25.643 12.6109C25.643 2.55874 23.0416 0 12.8215 0Z" fill="#3B5998"/>
<path d="M19.8828 12.7936H16.5381V10.4177C16.5381 9.32107 16.9097 8.59 18.3963 8.59H19.8828C20.2545 8.59 20.4403 8.40723 20.4403 8.0417V5.66573C20.4403 5.3002 20.2545 5.11743 19.8828 5.11743H17.4672C14.6799 5.11743 12.6359 6.76233 12.6359 9.86937V12.7936H10.4061C10.0345 12.7936 9.84863 12.9764 9.84863 13.3419V16.0834C9.84863 16.449 10.0345 16.6317 10.4061 16.6317H12.6359V25.2218H12.8217C14.1225 25.2218 15.4232 25.2218 16.5381 25.039V16.449H19.5112C19.697 16.449 20.0686 16.2662 20.0686 15.9007L20.4403 13.3419C20.4403 12.9764 20.2545 12.7936 19.8828 12.7936Z" fill="white"/>
</svg>
