<svg width="54" height="53" viewBox="0 0 54 53" fill="none" xmlns="http://www.w3.org/2000/svg">
<path d="M26.8865 52.4775C12.2249 52.4254 0.495572 40.6076 0.622604 26.1243C0.73905 11.9013 12.4154 0.0835012 27.2676 0.260508C41.781 0.427102 53.4045 12.2137 53.2351 26.6762C53.0763 40.8367 41.5058 52.4671 26.8865 52.4775ZM23.1391 38.9104C22.9697 38.8792 22.8956 38.8688 22.8109 38.8584C20.789 38.5772 18.8941 37.9838 17.2003 36.7968C15.3901 35.5265 14.2786 33.8189 13.8234 31.726C13.3576 29.5916 13.5375 27.4362 13.8763 25.3017C14.1092 23.8336 14.6173 22.4488 15.7818 21.3972C15.9512 21.241 15.9406 21.1161 15.8559 20.9078C15.2207 19.1794 15.2948 17.4406 15.8241 15.7017C15.93 15.3581 16.0994 15.2124 16.4699 15.3477C16.9145 15.5039 17.3697 15.6393 17.7825 15.8787C18.9152 16.5347 19.7833 17.4406 20.5455 18.4714C20.736 18.7213 20.8631 18.7629 21.1277 18.5859C21.784 18.1382 22.5568 18.0028 23.3084 17.8675C25.1292 17.5343 26.9606 17.5968 28.792 17.68C29.8612 17.7321 30.9198 17.9195 31.936 18.2944C32.2536 18.4089 32.5394 18.815 32.8358 18.6588C33.1323 18.513 33.3122 18.1174 33.5451 17.8466C34.4767 16.743 35.5459 15.8267 36.9856 15.379C37.4514 15.2332 37.6631 15.3061 37.8219 15.7954C38.3512 17.4926 38.4253 19.169 37.7583 20.8349C37.6525 21.0952 37.6737 21.2827 37.896 21.4805C38.7746 22.2822 39.2827 23.313 39.5474 24.448C40.0026 26.3846 40.119 28.3629 39.992 30.3412C39.865 32.2362 39.2404 33.9647 37.9489 35.4224C36.2128 37.3798 33.9474 38.3482 31.3962 38.7751C31.0997 38.8271 30.7927 38.8792 30.4752 38.9313C31.2268 40.087 31.5867 41.2844 31.5973 42.5755C31.6079 44.0645 31.5973 45.5638 31.5973 47.0527C31.5973 48.0211 31.5973 48.9894 31.5973 49.9682C33.2064 49.812 36.2128 48.7603 38.3088 47.6358C48.0797 42.3985 53.0128 31.5803 50.5251 20.8662C47.5822 8.12169 34.7625 0.0730891 21.8052 2.83231C9.56779 5.44576 1.09897 17.0449 2.94094 29.7894C3.79841 35.7139 6.56136 40.6701 11.1345 44.6163C14.1515 47.2193 17.6449 48.9582 21.5617 49.8536C21.8687 49.9265 22.0064 49.9057 21.9958 49.5413C21.9746 48.5209 21.9746 47.4901 21.9958 46.4697C21.9958 46.1261 21.9323 46.0219 21.5512 46.0948C20.8631 46.2302 20.1538 46.3031 19.4445 46.2614C17.2003 46.1469 15.3795 45.2723 14.0986 43.3981C13.6646 42.7629 13.4211 42.0237 13.0082 41.3885C12.2778 40.2744 11.6321 39.0979 10.4147 38.3794C10.2559 38.2857 10.0653 38.1399 10.1606 37.9213C10.2453 37.713 10.4782 37.7443 10.6687 37.7235C12.0237 37.6193 13.1353 38.1191 14.0563 39.077C14.5432 39.5872 14.8502 40.2224 15.2737 40.7742C16.6816 42.6172 19.3704 43.4085 21.5723 42.6276C21.8899 42.513 21.9852 42.3569 22.0275 42.0341C22.1546 40.9408 22.3663 39.8684 23.1391 38.9104Z" fill="#120606"/>
</svg>
