<svg width="164" height="46" viewBox="0 0 164 46" fill="none" xmlns="http://www.w3.org/2000/svg">
<rect x="1.27209" y="0.793457" width="161.437" height="44.2109" rx="22.1055" fill="#235AAC"/>
<rect x="1.27209" y="0.793457" width="161.437" height="44.2109" rx="22.1055" fill="url(#paint0_linear)"/>
<rect x="1.27209" y="0.793457" width="161.437" height="44.2109" rx="22.1055" fill="url(#paint1_linear)" fill-opacity="0.6"/>
<rect x="1.27209" y="0.793457" width="161.437" height="44.2109" rx="22.1055" stroke="url(#paint2_radial)"/>
<path d="M63.6599 18.8787V28.6787H61.3919V24.6607H56.9399V28.6787H54.6719V18.8787H56.9399V22.7427H61.3919V18.8787H63.6599ZM67.1685 18.8787H69.4365V28.6787H67.1685V18.8787ZM79.1963 28.6787L77.3063 25.9487H77.1943H75.2203V28.6787H72.9523V18.8787H77.1943C78.0623 18.8787 78.8136 19.0234 79.4483 19.3127C80.0923 19.6021 80.587 20.0127 80.9323 20.5447C81.2776 21.0767 81.4503 21.7067 81.4503 22.4347C81.4503 23.1627 81.273 23.7927 80.9183 24.3247C80.573 24.8474 80.0783 25.2487 79.4343 25.5287L81.6323 28.6787H79.1963ZM79.1543 22.4347C79.1543 21.8841 78.977 21.4641 78.6223 21.1747C78.2676 20.8761 77.7496 20.7267 77.0683 20.7267H75.2203V24.1427H77.0683C77.7496 24.1427 78.2676 23.9934 78.6223 23.6947C78.977 23.3961 79.1543 22.9761 79.1543 22.4347ZM92.0252 26.8587V28.6787H84.4372V18.8787H91.8432V20.6987H86.6912V22.8267H91.2412V24.5907H86.6912V26.8587H92.0252ZM109.093 28.6787L109.079 22.7987L106.195 27.6427H105.173L102.303 22.9247V28.6787H100.175V18.8787H102.051L105.719 24.9687L109.331 18.8787H111.193L111.221 28.6787H109.093ZM122.324 26.8587V28.6787H114.736V18.8787H122.142V20.6987H116.99V22.8267H121.54V24.5907H116.99V26.8587H122.324Z" fill="white"/>
<defs>
<linearGradient id="paint0_linear" x1="112.187" y1="10.5687" x2="71.6492" y2="55.2886" gradientUnits="userSpaceOnUse">
<stop stop-color="#ED6A23"/>
<stop offset="0.484375" stop-color="#98635D" stop-opacity="0.578218"/>
<stop offset="1" stop-color="#235AAC" stop-opacity="0"/>
</linearGradient>
<linearGradient id="paint1_linear" x1="81.9905" y1="-22.8258" x2="81.9905" y2="45.5044" gradientUnits="userSpaceOnUse">
<stop offset="0.588542" stop-color="#F0E811"/>
<stop offset="1" stop-color="white" stop-opacity="0"/>
</linearGradient>
<radialGradient id="paint2_radial" cx="0" cy="0" r="1" gradientUnits="userSpaceOnUse" gradientTransform="translate(81.9905 -6.89919) rotate(90) scale(52.4035 188.279)">
<stop stop-color="white"/>
<stop offset="1" stop-color="white" stop-opacity="0"/>
</radialGradient>
</defs>
</svg>
