<svg width="52" height="52" viewBox="0 0 52 52" fill="none" xmlns="http://www.w3.org/2000/svg">
<path d="M51.8665 25.9333C51.8665 40.2558 40.2558 51.8665 25.9333 51.8665C11.6107 51.8665 0 40.2558 0 25.9333C0 11.6107 11.6107 0 25.9333 0C40.2558 0 51.8665 11.6107 51.8665 25.9333Z" fill="#2B539B"/>
<path d="M12.2967 26.2124C12.1015 26.4076 12.1015 26.7242 12.2967 26.9195L15.4787 30.1014C15.674 30.2967 15.9905 30.2967 16.1858 30.1014C16.3811 29.9062 16.3811 29.5896 16.1858 29.3943L13.3574 26.5659L16.1858 23.7375C16.3811 23.5422 16.3811 23.2256 16.1858 23.0304C15.9905 22.8351 15.674 22.8351 15.4787 23.0304L12.2967 26.2124ZM40.4811 26.0659L12.6503 26.0659L12.6503 27.0659L40.4811 27.0659L40.4811 26.0659Z" fill="white"/>
</svg>
