<svg width="38" height="36" viewBox="0 0 38 36" fill="none" xmlns="http://www.w3.org/2000/svg">
<path d="M19.1321 0.0458984C4.60727 0.0458984 0.910034 3.68239 0.910034 17.9686C0.910034 32.2549 4.60727 35.8914 19.1321 35.8914C33.657 35.8914 37.3542 32.2549 37.3542 17.9686C37.3542 3.68239 33.9211 0.0458984 19.1321 0.0458984Z" fill="url(#paint0_radial)"/>
<path d="M23.8858 6.79907H14.6428C10.9455 6.79907 7.77649 9.91609 7.77649 13.5526V22.6439C7.77649 26.2804 10.9455 29.3975 14.6428 29.3975H23.8858C27.583 29.3975 30.7521 26.2804 30.7521 22.6439V13.5526C30.7521 9.65634 27.583 6.79907 23.8858 6.79907ZM28.3753 22.6439C28.3753 24.9817 26.2626 27.0597 23.8858 27.0597H14.6428C12.266 27.0597 10.1533 24.9817 10.1533 22.6439V13.5526C10.1533 11.2148 12.266 9.13684 14.6428 9.13684H23.8858C26.2626 9.13684 28.3753 11.2148 28.3753 13.5526V22.6439Z" fill="white"/>
<path d="M19.1323 12.2539C15.9633 12.2539 13.3224 14.8514 13.3224 17.9684C13.3224 21.0854 15.9633 23.6829 19.1323 23.6829C22.3014 23.6829 24.9423 21.0854 24.9423 17.9684C24.9423 14.8514 22.5655 12.2539 19.1323 12.2539ZM19.1323 21.6049C17.0196 21.6049 15.4351 20.0464 15.4351 17.9684C15.4351 15.8904 17.0196 14.3319 19.1323 14.3319C21.245 14.3319 22.8296 15.8904 22.8296 17.9684C22.8296 20.0464 21.245 21.6049 19.1323 21.6049Z" fill="white"/>
<path d="M25.2063 10.9551C24.414 10.9551 23.8859 11.4746 23.8859 12.2538C23.8859 13.033 24.414 13.5525 25.2063 13.5525C25.9986 13.5525 26.5267 13.033 26.5267 12.2538C26.5267 11.4746 25.9986 10.9551 25.2063 10.9551Z" fill="white"/>
<defs>
<radialGradient id="paint0_radial" cx="0" cy="0" r="1" gradientUnits="userSpaceOnUse" gradientTransform="translate(3.86202 35.635) scale(43.0639 42.3563)">
<stop stop-color="#F7E000"/>
<stop offset="0.0449938" stop-color="#F7C800"/>
<stop offset="0.1004" stop-color="#F6B000"/>
<stop offset="0.1346" stop-color="#F6A700"/>
<stop offset="0.3169" stop-color="#E66149"/>
<stop offset="0.3555" stop-color="#E4544D"/>
<stop offset="0.4271" stop-color="#DE3159"/>
<stop offset="0.5045" stop-color="#D70568"/>
<stop offset="0.6606" stop-color="#BC0090"/>
<stop offset="0.7555" stop-color="#A113A5"/>
<stop offset="0.8706" stop-color="#8528BC"/>
<stop offset="1" stop-color="#5456DA"/>
</radialGradient>
</defs>
</svg>
