<svg width="27" height="26" viewBox="0 0 27 26" fill="none" xmlns="http://www.w3.org/2000/svg">
<path d="M13.4107 0C3.1907 0 0.589233 2.55874 0.589233 12.6109C0.589233 22.6631 3.1907 25.2219 13.4107 25.2219C23.6308 25.2219 26.2323 22.6631 26.2323 12.6109C26.2323 2.55874 23.8166 0 13.4107 0Z" fill="url(#paint0_radial)"/>
<path d="M16.7556 4.75183H10.2519C7.65038 4.75183 5.42053 6.94504 5.42053 9.50377V15.9006C5.42053 18.4594 7.65038 20.6526 10.2519 20.6526H16.7556C19.357 20.6526 21.5869 18.4594 21.5869 15.9006V9.50377C21.5869 6.76227 19.357 4.75183 16.7556 4.75183ZM19.9145 15.9006C19.9145 17.5455 18.4279 19.0077 16.7556 19.0077H10.2519C8.57948 19.0077 7.09292 17.5455 7.09292 15.9006V9.50377C7.09292 7.85887 8.57948 6.39673 10.2519 6.39673H16.7556C18.4279 6.39673 19.9145 7.85887 19.9145 9.50377V15.9006Z" fill="white"/>
<path d="M13.4108 8.59003C11.1809 8.59003 9.32275 10.4177 9.32275 12.6109C9.32275 14.8041 11.1809 16.6318 13.4108 16.6318C15.6406 16.6318 17.4988 14.8041 17.4988 12.6109C17.4988 10.4177 15.8264 8.59003 13.4108 8.59003ZM13.4108 15.1696C11.9242 15.1696 10.8093 14.073 10.8093 12.6109C10.8093 11.1488 11.9242 10.0522 13.4108 10.0522C14.8973 10.0522 16.0123 11.1488 16.0123 12.6109C16.0123 14.073 14.8973 15.1696 13.4108 15.1696Z" fill="white"/>
<path d="M17.6847 7.67603C17.1273 7.67603 16.7556 8.04154 16.7556 8.58982C16.7556 9.1381 17.1273 9.50362 17.6847 9.50362C18.2422 9.50362 18.6138 9.1381 18.6138 8.58982C18.6138 8.04154 18.2422 7.67603 17.6847 7.67603Z" fill="white"/>
<defs>
<radialGradient id="paint0_radial" cx="0" cy="0" r="1" gradientUnits="userSpaceOnUse" gradientTransform="translate(2.66632 25.0415) scale(30.3008 29.8031)">
<stop stop-color="#F7E000"/>
<stop offset="0.0449938" stop-color="#F7C800"/>
<stop offset="0.1004" stop-color="#F6B000"/>
<stop offset="0.1346" stop-color="#F6A700"/>
<stop offset="0.3169" stop-color="#E66149"/>
<stop offset="0.3555" stop-color="#E4544D"/>
<stop offset="0.4271" stop-color="#DE3159"/>
<stop offset="0.5045" stop-color="#D70568"/>
<stop offset="0.6606" stop-color="#BC0090"/>
<stop offset="0.7555" stop-color="#A113A5"/>
<stop offset="0.8706" stop-color="#8528BC"/>
<stop offset="1" stop-color="#5456DA"/>
</radialGradient>
</defs>
</svg>
