<svg width="26" height="26" viewBox="0 0 26 26" fill="none" xmlns="http://www.w3.org/2000/svg">
<path d="M13.1786 0C2.95853 0 0.357056 2.55874 0.357056 12.6109C0.357056 22.6631 2.95853 25.2219 13.1786 25.2219C23.3986 25.2219 26.0001 22.6631 26.0001 12.6109C26.0001 2.55874 23.3986 0 13.1786 0Z" fill="#4072B2"/>
<path d="M17.0806 9.86926C15.4082 9.86926 14.6649 10.4176 14.1074 11.3314V10.6003C14.1074 10.4176 13.9216 10.052 13.55 10.052H11.3202C11.1343 10.052 10.7627 10.2348 10.7627 10.6003V19.7387C10.7627 19.9215 10.9485 20.287 11.3202 20.287H13.55C13.7358 20.287 14.1074 20.1043 14.1074 19.7387V14.804C14.1074 14.0729 14.4791 12.6108 15.9656 12.6108C17.8238 12.6108 17.638 14.804 17.638 15.3523V19.556C17.638 19.7387 17.8238 20.1043 18.1955 20.1043H20.6111C20.7969 20.1043 21.1686 19.9215 21.1686 19.556V15.3523C20.7969 13.3418 20.7969 9.86926 17.0806 9.86926Z" fill="white"/>
<path d="M7.78974 5.11743C6.67482 5.11743 5.74573 6.03127 5.74573 7.12787C5.74573 8.22447 6.67482 9.1383 7.78974 9.1383C8.90466 9.1383 9.83376 8.22447 9.83376 7.12787C9.83376 6.03127 8.90466 5.11743 7.78974 5.11743Z" fill="white"/>
<path d="M8.90475 10.0521H6.6749C6.30326 10.0521 6.11743 10.2348 6.11743 10.6004V19.5559C6.11743 19.9215 6.30326 20.1042 6.6749 20.1042H8.90475C9.27639 20.1042 9.46222 19.9215 9.46222 19.5559V10.6004C9.2764 10.2348 9.09057 10.0521 8.90475 10.0521Z" fill="white"/>
</svg>
