<svg width="38" height="36" viewBox="0 0 38 36" fill="none" xmlns="http://www.w3.org/2000/svg">
<path d="M18.8169 0.0458984C4.29208 0.0458984 0.594849 3.68239 0.594849 17.9686C0.594849 32.2549 4.29208 35.8914 18.8169 35.8914C33.3417 35.8914 37.0389 32.2549 37.0389 17.9686C37.0389 3.68239 33.3417 0.0458984 18.8169 0.0458984Z" fill="#4072B2"/>
<path d="M24.3627 14.0723C21.9859 14.0723 20.9295 14.8515 20.1373 16.1503V15.1113C20.1373 14.8515 19.8732 14.332 19.345 14.332H16.1759C15.9119 14.332 15.3837 14.5918 15.3837 15.1113V28.0989C15.3837 28.3587 15.6478 28.8782 16.1759 28.8782H19.345C19.6091 28.8782 20.1373 28.6184 20.1373 28.0989V21.0856C20.1373 20.0466 20.6654 17.9686 22.7781 17.9686C25.419 17.9686 25.1549 21.0856 25.1549 21.8648V27.8392C25.1549 28.0989 25.419 28.6184 25.9472 28.6184H29.3804C29.6444 28.6184 30.1726 28.3587 30.1726 27.8392V21.8648C29.6444 19.0076 29.6444 14.0723 24.3627 14.0723Z" fill="white"/>
<path d="M11.1583 7.3186C9.57383 7.3186 8.25342 8.61738 8.25342 10.1759C8.25342 11.7344 9.57383 13.0332 11.1583 13.0332C12.7428 13.0332 14.0632 11.7344 14.0632 10.1759C14.0632 8.61738 12.7428 7.3186 11.1583 7.3186Z" fill="white"/>
<path d="M12.7429 14.3318H9.57388C9.04571 14.3318 8.78162 14.5915 8.78162 15.111V27.8389C8.78162 28.3584 9.04571 28.6182 9.57388 28.6182H12.7429C13.2711 28.6182 13.5352 28.3584 13.5352 27.8389V15.111C13.2711 14.5915 13.007 14.3318 12.7429 14.3318Z" fill="white"/>
</svg>
