<svg width="26" height="26" viewBox="0 0 26 26" fill="none" xmlns="http://www.w3.org/2000/svg">
<path d="M13.1787 0C2.95865 0 0.357178 2.55874 0.357178 12.6109C0.357178 22.6631 2.95865 25.2219 13.1787 25.2219C23.3988 25.2219 26.0002 22.6631 26.0002 12.6109C26.0002 2.55874 23.3988 0 13.1787 0Z" fill="#4072B2"/>
<path d="M17.0808 9.86926C15.4084 9.86926 14.6652 10.4176 14.1077 11.3314V10.6003C14.1077 10.4176 13.9219 10.052 13.5502 10.052H11.3204C11.1346 10.052 10.7629 10.2348 10.7629 10.6003V19.7387C10.7629 19.9215 10.9488 20.287 11.3204 20.287H13.5502C13.736 20.287 14.1077 20.1043 14.1077 19.7387V14.804C14.1077 14.0729 14.4793 12.6108 15.9659 12.6108C17.8241 12.6108 17.6382 14.804 17.6382 15.3523V19.556C17.6382 19.7387 17.8241 20.1043 18.1957 20.1043H20.6114C20.7972 20.1043 21.1688 19.9215 21.1688 19.556V15.3523C20.7972 13.3418 20.7972 9.86926 17.0808 9.86926Z" fill="white"/>
<path d="M7.78986 5.11743C6.67495 5.11743 5.74585 6.03127 5.74585 7.12787C5.74585 8.22447 6.67495 9.1383 7.78986 9.1383C8.90478 9.1383 9.83388 8.22447 9.83388 7.12787C9.83388 6.03127 8.90478 5.11743 7.78986 5.11743Z" fill="white"/>
<path d="M8.90475 10.0521H6.6749C6.30326 10.0521 6.11743 10.2349 6.11743 10.6004V19.556C6.11743 19.9215 6.30326 20.1043 6.6749 20.1043H8.90475C9.27639 20.1043 9.46222 19.9215 9.46222 19.556V10.6004C9.2764 10.2349 9.09057 10.0521 8.90475 10.0521Z" fill="white"/>
</svg>
