<svg width="17" height="24" viewBox="0 0 17 24" fill="none" xmlns="http://www.w3.org/2000/svg">
<path d="M12.3616 8.94026C12.3616 11.2019 10.4968 13.0368 8.1966 13.0368C5.89603 13.0368 4.03163 11.2019 4.03163 8.94026C4.03163 6.67794 5.89636 4.84369 8.1966 4.84369C10.4973 4.84352 12.3616 6.67778 12.3616 8.94026ZM16.6829 8.94026C16.6829 4.41513 12.9536 0.746948 8.3528 0.746948C3.75231 0.746948 0.0227051 4.41513 0.0227051 8.94026C0.0227051 10.9298 0.744427 12.754 1.94375 14.173L8.36 23.2784L14.8701 14.0402C15.1039 13.7524 15.318 13.4491 15.5112 13.1302L15.5771 13.0373H15.5663C16.2752 11.8314 16.6829 10.4333 16.6829 8.94026Z" fill="black"/>
</svg>
