<svg width="158" height="25" viewBox="0 0 158 25" fill="none" xmlns="http://www.w3.org/2000/svg">
<path d="M12.3616 8.94026C12.3616 11.2019 10.4968 13.0368 8.1966 13.0368C5.89603 13.0368 4.03163 11.2019 4.03163 8.94026C4.03163 6.67794 5.89636 4.84369 8.1966 4.84369C10.4973 4.84352 12.3616 6.67778 12.3616 8.94026ZM16.6829 8.94026C16.6829 4.41513 12.9536 0.746948 8.3528 0.746948C3.75231 0.746948 0.0227051 4.41513 0.0227051 8.94026C0.0227051 10.9298 0.744427 12.754 1.94375 14.173L8.36 23.2784L14.8701 14.0402C15.1039 13.7524 15.318 13.4491 15.5112 13.1302L15.5771 13.0373H15.5663C16.2752 11.8314 16.6829 10.4333 16.6829 8.94026Z" fill="black"/>
<path d="M26.2107 10.1354V14.0394H31.8267V15.4154H26.2107V19.9434H24.6107V8.74336H32.5147V10.1354H26.2107ZM35.8587 12.8874C36.1253 12.3967 36.52 12.0234 37.0427 11.7674C37.5653 11.5114 38.2 11.3834 38.9467 11.3834V12.8714C38.8613 12.8607 38.744 12.8554 38.5947 12.8554C37.7627 12.8554 37.1067 13.106 36.6267 13.6074C36.1573 14.098 35.9227 14.802 35.9227 15.7194V19.9434H34.3867V11.4634H35.8587V12.8874ZM44.3937 20.0394C43.551 20.0394 42.7937 19.8527 42.1217 19.4794C41.4497 19.106 40.9217 18.594 40.5377 17.9434C40.1643 17.282 39.9777 16.5354 39.9777 15.7034C39.9777 14.8714 40.1643 14.13 40.5377 13.4794C40.9217 12.818 41.4497 12.306 42.1217 11.9434C42.7937 11.57 43.551 11.3834 44.3937 11.3834C45.2363 11.3834 45.9883 11.57 46.6497 11.9434C47.3217 12.306 47.8443 12.818 48.2177 13.4794C48.6017 14.13 48.7937 14.8714 48.7937 15.7034C48.7937 16.5354 48.6017 17.282 48.2177 17.9434C47.8443 18.594 47.3217 19.106 46.6497 19.4794C45.9883 19.8527 45.2363 20.0394 44.3937 20.0394ZM44.3937 18.6954C44.9377 18.6954 45.423 18.5727 45.8497 18.3274C46.287 18.0714 46.6283 17.7194 46.8737 17.2714C47.119 16.8127 47.2417 16.29 47.2417 15.7034C47.2417 15.1167 47.119 14.5994 46.8737 14.1514C46.6283 13.6927 46.287 13.3407 45.8497 13.0954C45.423 12.85 44.9377 12.7274 44.3937 12.7274C43.8497 12.7274 43.359 12.85 42.9217 13.0954C42.495 13.3407 42.1537 13.6927 41.8977 14.1514C41.6523 14.5994 41.5297 15.1167 41.5297 15.7034C41.5297 16.29 41.6523 16.8127 41.8977 17.2714C42.1537 17.7194 42.495 18.0714 42.9217 18.3274C43.359 18.5727 43.8497 18.6954 44.3937 18.6954ZM61.5259 11.3834C62.5926 11.3834 63.4352 11.6927 64.0539 12.3114C64.6832 12.93 64.9979 13.8474 64.9979 15.0634V19.9434H63.4619V15.2394C63.4619 14.418 63.2699 13.7994 62.8859 13.3834C62.5126 12.9674 61.9739 12.7594 61.2699 12.7594C60.4912 12.7594 59.8726 13.0047 59.4139 13.4954C58.9552 13.9754 58.7259 14.6687 58.7259 15.5754V19.9434H57.1899V15.2394C57.1899 14.418 56.9979 13.7994 56.6139 13.3834C56.2406 12.9674 55.7019 12.7594 54.9979 12.7594C54.2192 12.7594 53.6006 13.0047 53.1419 13.4954C52.6832 13.9754 52.4539 14.6687 52.4539 15.5754V19.9434H50.9179V11.4634H52.3899V12.7274C52.6992 12.29 53.1046 11.9594 53.6059 11.7354C54.1072 11.5007 54.6779 11.3834 55.3179 11.3834C55.9792 11.3834 56.5659 11.5167 57.0779 11.7834C57.5899 12.05 57.9846 12.4394 58.2619 12.9514C58.5819 12.4607 59.0246 12.0767 59.5899 11.7994C60.1659 11.522 60.8112 11.3834 61.5259 11.3834ZM68.1922 13.5754C67.8935 13.5754 67.6375 13.474 67.4242 13.2714C67.2108 13.058 67.1042 12.7914 67.1042 12.4714C67.1042 12.162 67.2108 11.906 67.4242 11.7034C67.6375 11.49 67.8935 11.3834 68.1922 11.3834C68.4908 11.3834 68.7415 11.4847 68.9442 11.6874C69.1468 11.89 69.2482 12.1514 69.2482 12.4714C69.2482 12.7914 69.1415 13.058 68.9282 13.2714C68.7255 13.474 68.4802 13.5754 68.1922 13.5754ZM68.1922 20.0394C67.8935 20.0394 67.6375 19.938 67.4242 19.7354C67.2108 19.522 67.1042 19.2554 67.1042 18.9354C67.1042 18.626 67.2108 18.37 67.4242 18.1674C67.6375 17.954 67.8935 17.8474 68.1922 17.8474C68.4908 17.8474 68.7415 17.9487 68.9442 18.1514C69.1468 18.354 69.2482 18.6154 69.2482 18.9354C69.2482 19.2554 69.1415 19.522 68.9282 19.7354C68.7255 19.938 68.4802 20.0394 68.1922 20.0394ZM85.602 8.74336V19.9434H84.29L77.57 11.5914V19.9434H75.97V8.74336H77.282L84.002 17.0954V8.74336H85.602ZM96.3944 15.7514C96.3944 15.8687 96.3837 16.0234 96.3624 16.2154H89.4824C89.5784 16.962 89.9037 17.5647 90.4584 18.0234C91.0237 18.4714 91.7224 18.6954 92.5544 18.6954C93.5677 18.6954 94.3837 18.354 95.0024 17.6714L95.8504 18.6634C95.4664 19.1114 94.9864 19.4527 94.4104 19.6874C93.8451 19.922 93.2104 20.0394 92.5064 20.0394C91.6104 20.0394 90.8157 19.858 90.1224 19.4954C89.4291 19.122 88.8904 18.6047 88.5064 17.9434C88.1331 17.282 87.9464 16.5354 87.9464 15.7034C87.9464 14.882 88.1277 14.1407 88.4904 13.4794C88.8637 12.818 89.3704 12.306 90.0104 11.9434C90.6611 11.57 91.3917 11.3834 92.2024 11.3834C93.0131 11.3834 93.7331 11.57 94.3624 11.9434C95.0024 12.306 95.4984 12.818 95.8504 13.4794C96.2131 14.1407 96.3944 14.898 96.3944 15.7514ZM92.2024 12.6794C91.4664 12.6794 90.8477 12.9034 90.3464 13.3514C89.8557 13.7994 89.5677 14.386 89.4824 15.1114H94.9224C94.8371 14.3967 94.5437 13.8154 94.0424 13.3674C93.5517 12.9087 92.9384 12.6794 92.2024 12.6794ZM111.203 11.4634L108.035 19.9434H106.563L104.115 13.5114L101.635 19.9434H100.163L97.011 11.4634H98.467L100.931 18.2154L103.491 11.4634H104.787L107.299 18.2474L109.827 11.4634H111.203ZM121.571 16.0714V19.9434H119.987V16.0394L115.539 8.74336H117.251L120.835 14.6474L124.435 8.74336H126.019L121.571 16.0714ZM130.097 20.0394C129.254 20.0394 128.497 19.8527 127.825 19.4794C127.153 19.106 126.625 18.594 126.241 17.9434C125.867 17.282 125.681 16.5354 125.681 15.7034C125.681 14.8714 125.867 14.13 126.241 13.4794C126.625 12.818 127.153 12.306 127.825 11.9434C128.497 11.57 129.254 11.3834 130.097 11.3834C130.939 11.3834 131.691 11.57 132.353 11.9434C133.025 12.306 133.547 12.818 133.921 13.4794C134.305 14.13 134.497 14.8714 134.497 15.7034C134.497 16.5354 134.305 17.282 133.921 17.9434C133.547 18.594 133.025 19.106 132.353 19.4794C131.691 19.8527 130.939 20.0394 130.097 20.0394ZM130.097 18.6954C130.641 18.6954 131.126 18.5727 131.553 18.3274C131.99 18.0714 132.331 17.7194 132.577 17.2714C132.822 16.8127 132.945 16.29 132.945 15.7034C132.945 15.1167 132.822 14.5994 132.577 14.1514C132.331 13.6927 131.99 13.3407 131.553 13.0954C131.126 12.85 130.641 12.7274 130.097 12.7274C129.553 12.7274 129.062 12.85 128.625 13.0954C128.198 13.3407 127.857 13.6927 127.601 14.1514C127.355 14.5994 127.233 15.1167 127.233 15.7034C127.233 16.29 127.355 16.8127 127.601 17.2714C127.857 17.7194 128.198 18.0714 128.625 18.3274C129.062 18.5727 129.553 18.6954 130.097 18.6954ZM138.093 12.8874C138.36 12.3967 138.754 12.0234 139.277 11.7674C139.8 11.5114 140.434 11.3834 141.181 11.3834V12.8714C141.096 12.8607 140.978 12.8554 140.829 12.8554C139.997 12.8554 139.341 13.106 138.861 13.6074C138.392 14.098 138.157 14.802 138.157 15.7194V19.9434H136.621V11.4634H138.093V12.8874ZM146.37 15.9914L144.61 17.6234V19.9434H143.074V8.07136H144.61V15.6874L149.234 11.4634H151.09L147.522 14.9674L151.442 19.9434H149.554L146.37 15.9914Z" fill="#686868"/>
</svg>
