<svg width="86" height="85" viewBox="0 0 86 85" fill="none" xmlns="http://www.w3.org/2000/svg">
<path d="M43.0953 84.8531C66.6733 84.8531 85.787 66.0533 85.787 42.8626C85.787 19.6719 66.6733 0.87207 43.0953 0.87207C19.5173 0.87207 0.403564 19.6719 0.403564 42.8626C0.403564 66.0533 19.5173 84.8531 43.0953 84.8531Z" fill="url(#paint0_linear)"/>
<path d="M58.371 39.9101L31.8888 22.2609C31.2884 21.8509 30.588 21.6376 29.8709 21.6376C27.8698 21.6376 26.2355 23.2451 26.2355 25.2134V60.4953C26.2355 62.4636 27.8698 64.071 29.8709 64.071C30.588 64.071 31.2884 63.8578 31.8888 63.4478L58.371 45.815C59.3716 45.1589 59.9553 44.0435 59.9553 42.8625C59.9553 41.6816 59.3716 40.5826 58.371 39.9101ZM57.2037 44.1255L30.7214 61.7747C30.4546 61.9551 30.1711 62.0371 29.8543 62.0371C29.1038 62.0371 28.2867 61.4466 28.2867 60.5117V25.2134C28.2867 24.262 29.1038 23.688 29.8543 23.688C30.1544 23.688 30.4546 23.77 30.7214 23.9504L57.2037 41.5995C57.6373 41.8948 57.8874 42.3541 57.8874 42.8625C57.8874 43.371 57.6373 43.8467 57.2037 44.1255Z" fill="white"/>
<defs>
<linearGradient id="paint0_linear" x1="43.0953" y1="84.8531" x2="43.0953" y2="0.87207" gradientUnits="userSpaceOnUse">
<stop stop-color="#FF512F"/>
<stop offset="1" stop-color="#F09819"/>
</linearGradient>
</defs>
</svg>
