<svg width="384" height="60" viewBox="0 0 384 60" fill="none" xmlns="http://www.w3.org/2000/svg">
<path d="M13.896 25.8C16.128 25.8 18.06 26.172 19.692 26.916C21.348 27.66 22.62 28.716 23.508 30.084C24.396 31.452 24.84 33.072 24.84 34.944C24.84 36.792 24.396 38.412 23.508 39.804C22.62 41.172 21.348 42.228 19.692 42.972C18.06 43.692 16.128 44.052 13.896 44.052H8.82V51H2.988V25.8H13.896ZM13.572 39.3C15.324 39.3 16.656 38.928 17.568 38.184C18.48 37.416 18.936 36.336 18.936 34.944C18.936 33.528 18.48 32.448 17.568 31.704C16.656 30.936 15.324 30.552 13.572 30.552H8.82V39.3H13.572ZM41.5592 51.432C38.9432 51.432 36.5792 50.868 34.4672 49.74C32.3792 48.612 30.7352 47.064 29.5352 45.096C28.3592 43.104 27.7712 40.872 27.7712 38.4C27.7712 35.928 28.3592 33.708 29.5352 31.74C30.7352 29.748 32.3792 28.188 34.4672 27.06C36.5792 25.932 38.9432 25.368 41.5592 25.368C44.1752 25.368 46.5272 25.932 48.6152 27.06C50.7032 28.188 52.3472 29.748 53.5472 31.74C54.7472 33.708 55.3472 35.928 55.3472 38.4C55.3472 40.872 54.7472 43.104 53.5472 45.096C52.3472 47.064 50.7032 48.612 48.6152 49.74C46.5272 50.868 44.1752 51.432 41.5592 51.432ZM41.5592 46.464C43.0472 46.464 44.3912 46.128 45.5912 45.456C46.7912 44.76 47.7272 43.8 48.3992 42.576C49.0952 41.352 49.4432 39.96 49.4432 38.4C49.4432 36.84 49.0952 35.448 48.3992 34.224C47.7272 33 46.7912 32.052 45.5912 31.38C44.3912 30.684 43.0472 30.336 41.5592 30.336C40.0712 30.336 38.7272 30.684 37.5272 31.38C36.3272 32.052 35.3792 33 34.6832 34.224C34.0112 35.448 33.6752 36.84 33.6752 38.4C33.6752 39.96 34.0112 41.352 34.6832 42.576C35.3792 43.8 36.3272 44.76 37.5272 45.456C38.7272 46.128 40.0712 46.464 41.5592 46.464ZM75.7862 51L70.9262 43.98H70.6382H65.5622V51H59.7302V25.8H70.6382C72.8702 25.8 74.8022 26.172 76.4342 26.916C78.0902 27.66 79.3622 28.716 80.2502 30.084C81.1382 31.452 81.5822 33.072 81.5822 34.944C81.5822 36.816 81.1262 38.436 80.2142 39.804C79.3262 41.148 78.0542 42.18 76.3982 42.9L82.0502 51H75.7862ZM75.6782 34.944C75.6782 33.528 75.2222 32.448 74.3102 31.704C73.3982 30.936 72.0662 30.552 70.3142 30.552H65.5622V39.336H70.3142C72.0662 39.336 73.3982 38.952 74.3102 38.184C75.2222 37.416 75.6782 36.336 75.6782 34.944ZM91.0713 30.552H83.0073V25.8H104.967V30.552H96.9033V51H91.0713V30.552ZM113.937 30.48V37.14H125.601V41.82H113.937V51H108.105V25.8H127.149V30.48H113.937ZM143.055 51.432C140.439 51.432 138.075 50.868 135.963 49.74C133.875 48.612 132.231 47.064 131.031 45.096C129.855 43.104 129.267 40.872 129.267 38.4C129.267 35.928 129.855 33.708 131.031 31.74C132.231 29.748 133.875 28.188 135.963 27.06C138.075 25.932 140.439 25.368 143.055 25.368C145.671 25.368 148.023 25.932 150.111 27.06C152.199 28.188 153.843 29.748 155.043 31.74C156.243 33.708 156.843 35.928 156.843 38.4C156.843 40.872 156.243 43.104 155.043 45.096C153.843 47.064 152.199 48.612 150.111 49.74C148.023 50.868 145.671 51.432 143.055 51.432ZM143.055 46.464C144.543 46.464 145.887 46.128 147.087 45.456C148.287 44.76 149.223 43.8 149.895 42.576C150.591 41.352 150.939 39.96 150.939 38.4C150.939 36.84 150.591 35.448 149.895 34.224C149.223 33 148.287 32.052 147.087 31.38C145.887 30.684 144.543 30.336 143.055 30.336C141.567 30.336 140.223 30.684 139.023 31.38C137.823 32.052 136.875 33 136.179 34.224C135.507 35.448 135.171 36.84 135.171 38.4C135.171 39.96 135.507 41.352 136.179 42.576C136.875 43.8 137.823 44.76 139.023 45.456C140.223 46.128 141.567 46.464 143.055 46.464ZM161.226 25.8H167.058V46.248H179.694V51H161.226V25.8ZM182.953 25.8H188.785V51H182.953V25.8ZM206.969 51.432C204.353 51.432 201.989 50.868 199.877 49.74C197.789 48.612 196.145 47.064 194.945 45.096C193.769 43.104 193.181 40.872 193.181 38.4C193.181 35.928 193.769 33.708 194.945 31.74C196.145 29.748 197.789 28.188 199.877 27.06C201.989 25.932 204.353 25.368 206.969 25.368C209.585 25.368 211.937 25.932 214.025 27.06C216.113 28.188 217.757 29.748 218.957 31.74C220.157 33.708 220.757 35.928 220.757 38.4C220.757 40.872 220.157 43.104 218.957 45.096C217.757 47.064 216.113 48.612 214.025 49.74C211.937 50.868 209.585 51.432 206.969 51.432ZM206.969 46.464C208.457 46.464 209.801 46.128 211.001 45.456C212.201 44.76 213.137 43.8 213.809 42.576C214.505 41.352 214.853 39.96 214.853 38.4C214.853 36.84 214.505 35.448 213.809 34.224C213.137 33 212.201 32.052 211.001 31.38C209.801 30.684 208.457 30.336 206.969 30.336C205.481 30.336 204.137 30.684 202.937 31.38C201.737 32.052 200.789 33 200.093 34.224C199.421 35.448 199.085 36.84 199.085 38.4C199.085 39.96 199.421 41.352 200.093 42.576C200.789 43.8 201.737 44.76 202.937 45.456C204.137 46.128 205.481 46.464 206.969 46.464Z" fill="url(#paint0_linear)"/>
<path d="M33.688 16.096C32.5787 16.096 31.576 15.8507 30.68 15.36C29.7947 14.8693 29.096 14.192 28.584 13.328C28.0827 12.4533 27.832 11.4773 27.832 10.4C27.832 9.32267 28.0827 8.352 28.584 7.488C29.096 6.61333 29.8 5.93067 30.696 5.44C31.592 4.94933 32.5947 4.704 33.704 4.704C34.536 4.704 35.304 4.84267 36.008 5.12C36.712 5.39733 37.3093 5.80267 37.8 6.336L37.048 7.088C36.1733 6.20267 35.0693 5.76 33.736 5.76C32.8507 5.76 32.0453 5.96267 31.32 6.368C30.5947 6.77333 30.024 7.328 29.608 8.032C29.2027 8.736 29 9.52533 29 10.4C29 11.2747 29.2027 12.064 29.608 12.768C30.024 13.472 30.5947 14.0267 31.32 14.432C32.0453 14.8373 32.8507 15.04 33.736 15.04C35.08 15.04 36.184 14.592 37.048 13.696L37.8 14.448C37.3093 14.9813 36.7067 15.392 35.992 15.68C35.288 15.9573 34.52 16.096 33.688 16.096ZM47.972 16L45.412 12.4C45.124 12.432 44.8253 12.448 44.516 12.448H41.508V16H40.324V4.8H44.516C45.9453 4.8 47.0653 5.14133 47.876 5.824C48.6867 6.50667 49.092 7.44533 49.092 8.64C49.092 9.51467 48.868 10.256 48.42 10.864C47.9827 11.4613 47.3533 11.8933 46.532 12.16L49.268 16H47.972ZM44.484 11.44C45.5933 11.44 46.4413 11.1947 47.028 10.704C47.6147 10.2133 47.908 9.52533 47.908 8.64C47.908 7.73333 47.6147 7.04 47.028 6.56C46.4413 6.06933 45.5933 5.824 44.484 5.824H41.508V11.44H44.484ZM59.8065 14.976V16H51.8865V4.8H59.5665V5.824H53.0705V9.808H58.8625V10.816H53.0705V14.976H59.8065ZM69.6136 13.008H63.3736L62.0296 16H60.7976L65.9176 4.8H67.0856L72.2056 16H70.9576L69.6136 13.008ZM69.1816 12.048L66.4936 6.032L63.8056 12.048H69.1816ZM75.6719 5.824H71.7359V4.8H80.7919V5.824H76.8559V16H75.6719V5.824ZM82.6834 4.8H83.8674V16H82.6834V4.8ZM96.6985 4.8L91.7385 16H90.5705L85.6105 4.8H86.8905L91.1785 14.528L95.4985 4.8H96.6985ZM106.244 14.976V16H98.324V4.8H106.004V5.824H99.508V9.808H105.3V10.816H99.508V14.976H106.244Z" fill="#F06A22"/>
<line x1="239" y1="42" x2="384" y2="42" stroke="black" stroke-width="2"/>
<defs>
<linearGradient id="paint0_linear" x1="6.71687" y1="51" x2="223" y2="51" gradientUnits="userSpaceOnUse">
<stop stop-color="#1C52A4"/>
<stop offset="1" stop-color="#F06A22"/>
</linearGradient>
</defs>
</svg>
