<?xml version="1.0" encoding="UTF-8" standalone="no"?>
<svg
   xmlns:dc="http://purl.org/dc/elements/1.1/"
   xmlns:cc="http://creativecommons.org/ns#"
   xmlns:rdf="http://www.w3.org/1999/02/22-rdf-syntax-ns#"
   xmlns:svg="http://www.w3.org/2000/svg"
   xmlns="http://www.w3.org/2000/svg"
   id="svg8"
   version="1.1"
   viewBox="0 0 210 297"
   height="297mm"
   width="210mm">
  <defs
     id="defs2" />
  <metadata
     id="metadata5">
    <rdf:RDF>
      <cc:Work
         rdf:about="">
        <dc:format>image/svg+xml</dc:format>
        <dc:type
           rdf:resource="http://purl.org/dc/dcmitype/StillImage" />
        <dc:title></dc:title>
      </cc:Work>
    </rdf:RDF>
  </metadata>
  <g
     id="layer1">
    <path
       d=""
       id="path849"
       style="fill:#000000;stroke-width:0.264583" />
    <path
       d=""
       id="path847"
       style="fill:#000000;stroke-width:0.264583" />
    <path
       style="fill:#ef7c3e;fill-opacity:1;stroke:none;stroke-width:0.264583"
       d="m 29.461941,79.893214 c -1.053624,0.62537 -0.850926,2.037663 0.240903,2.478829 1.312651,0.530384 3.348197,0.159649 4.746996,0.159649 h 21.960419 82.285421 24.87084 c 1.82562,0 7.2411,0.910405 8.57171,-0.424233 0.76729,-0.769725 0.34924,-2.127726 -0.64984,-2.402072 -1.72136,-0.472705 -4.0243,-0.08411 -5.80521,-0.08411 H 140.54776 59.849842 37.889423 c -2.155613,0 -6.553412,-0.840397 -8.427482,0.271938"
       id="path851-7" />
    <path
       style="fill:#137fc9;stroke:none;stroke-width:0.264583"
       d="m 15.703608,79.893213 c -1.053624,0.62537 -0.850926,2.037663 0.240903,2.478829 1.312651,0.530384 3.348197,0.159649 4.746996,0.159649 h 35.718751 69.056252 24.87084 c 1.82563,0 7.24111,0.910405 8.57171,-0.424233 0.76729,-0.769725 0.34925,-2.127726 -0.64983,-2.402072 -1.72137,-0.472705 -4.02431,-0.08411 -5.80522,-0.08411 H 127.3186 59.849841 24.131089 c -2.155612,0 -6.553411,-0.840397 -8.427481,0.271938 M 172.03319,79.621275 v 0.264583 c 0.85725,0.931386 0.56409,1.60364 0,2.645833 1.18454,0 7.10987,0.623465 5.7486,-2.056447 -0.76227,-1.500347 -4.35637,-0.853969 -5.7486,-0.853969 z"
       id="path851" />
    <path
       id="path851-7-0"
       d="m 172.03319,79.885858 v 0.26458 c 0.85725,0.93138 0.56409,1.60364 0,2.64583 1.18454,0 7.10987,0.62347 5.7486,-2.05645 -0.76227,-1.50034 -4.35637,-0.85396 -5.7486,-0.85396 z"
       style="fill:#969ba0;fill-opacity:1;stroke:none;stroke-width:0.264583" />
  </g>
</svg>
