<svg width="304" height="63" viewBox="0 0 304 63" fill="none" xmlns="http://www.w3.org/2000/svg">
<path d="M11.6938 52.4023C9.70178 52.4023 7.76978 52.1383 5.89778 51.6103C4.04978 51.0583 2.56178 50.3503 1.43378 49.4863L3.41378 45.0943C4.49378 45.8863 5.77778 46.5223 7.26578 47.0023C8.75378 47.4823 10.2418 47.7223 11.7298 47.7223C13.3858 47.7223 14.6098 47.4823 15.4018 47.0023C16.1938 46.4983 16.5898 45.8383 16.5898 45.0223C16.5898 44.4223 16.3498 43.9303 15.8698 43.5463C15.4138 43.1383 14.8138 42.8143 14.0698 42.5743C13.3498 42.3343 12.3658 42.0703 11.1178 41.7823C9.19778 41.3263 7.62578 40.8703 6.40178 40.4143C5.17778 39.9583 4.12178 39.2263 3.23378 38.2183C2.36978 37.2103 1.93778 35.8663 1.93778 34.1863C1.93778 32.7223 2.33378 31.4023 3.12578 30.2263C3.91778 29.0263 5.10578 28.0783 6.68978 27.3823C8.29778 26.6863 10.2538 26.3383 12.5578 26.3383C14.1658 26.3383 15.7378 26.5303 17.2738 26.9143C18.8098 27.2983 20.1538 27.8503 21.3058 28.5703L19.5058 32.9983C17.1778 31.6783 14.8498 31.0183 12.5218 31.0183C10.8898 31.0183 9.67778 31.2823 8.88578 31.8103C8.11778 32.3383 7.73378 33.0343 7.73378 33.8983C7.73378 34.7623 8.17778 35.4103 9.06578 35.8423C9.97778 36.2503 11.3578 36.6583 13.2058 37.0663C15.1258 37.5223 16.6978 37.9783 17.9218 38.4343C19.1458 38.8903 20.1898 39.6103 21.0538 40.5943C21.9418 41.5783 22.3858 42.9103 22.3858 44.5903C22.3858 46.0303 21.9778 47.3503 21.1618 48.5503C20.3698 49.7263 19.1698 50.6623 17.5618 51.3583C15.9538 52.0543 13.9978 52.4023 11.6938 52.4023ZM35.5508 42.0703L32.1668 45.5983V51.9703H26.3708V26.7703H32.1668V38.5423L43.3268 26.7703H49.8068L39.3668 38.0023L50.4188 51.9703H43.6148L35.5508 42.0703ZM53.0193 26.7703H58.8513V51.9703H53.0193V26.7703ZM64.8318 26.7703H70.6638V47.2183H83.2998V51.9703H64.8318V26.7703ZM86.5583 26.7703H92.3903V47.2183H105.026V51.9703H86.5583V26.7703ZM116.424 52.4023C114.432 52.4023 112.5 52.1383 110.628 51.6103C108.78 51.0583 107.292 50.3503 106.164 49.4863L108.144 45.0943C109.224 45.8863 110.508 46.5223 111.996 47.0023C113.484 47.4823 114.972 47.7223 116.46 47.7223C118.116 47.7223 119.34 47.4823 120.132 47.0023C120.924 46.4983 121.32 45.8383 121.32 45.0223C121.32 44.4223 121.08 43.9303 120.6 43.5463C120.144 43.1383 119.544 42.8143 118.8 42.5743C118.08 42.3343 117.096 42.0703 115.848 41.7823C113.928 41.3263 112.356 40.8703 111.132 40.4143C109.908 39.9583 108.852 39.2263 107.964 38.2183C107.1 37.2103 106.668 35.8663 106.668 34.1863C106.668 32.7223 107.064 31.4023 107.856 30.2263C108.648 29.0263 109.836 28.0783 111.42 27.3823C113.028 26.6863 114.984 26.3383 117.288 26.3383C118.896 26.3383 120.468 26.5303 122.004 26.9143C123.54 27.2983 124.884 27.8503 126.036 28.5703L124.236 32.9983C121.908 31.6783 119.58 31.0183 117.252 31.0183C115.62 31.0183 114.408 31.2823 113.616 31.8103C112.848 32.3383 112.464 33.0343 112.464 33.8983C112.464 34.7623 112.908 35.4103 113.796 35.8423C114.708 36.2503 116.088 36.6583 117.936 37.0663C119.856 37.5223 121.428 37.9783 122.652 38.4343C123.876 38.8903 124.92 39.6103 125.784 40.5943C126.672 41.5783 127.116 42.9103 127.116 44.5903C127.116 46.0303 126.708 47.3503 125.892 48.5503C125.1 49.7263 123.9 50.6623 122.292 51.3583C120.684 52.0543 118.728 52.4023 116.424 52.4023Z" fill="url(#paint0_linear)"/>
<path d="M34.5558 5.33003C35.9851 5.33003 37.1051 5.67136 37.9158 6.35403C38.7265 7.0367 39.1318 7.97536 39.1318 9.17003C39.1318 10.3647 38.7265 11.3034 37.9158 11.986C37.1051 12.658 35.9851 12.994 34.5558 12.994H31.5478V16.53H30.3638V5.33003H34.5558ZM34.5238 11.954C35.6331 11.954 36.4811 11.714 37.0678 11.234C37.6545 10.7434 37.9478 10.0554 37.9478 9.17003C37.9478 8.26336 37.6545 7.57003 37.0678 7.09003C36.4811 6.59936 35.6331 6.35403 34.5238 6.35403H31.5478V11.954H34.5238ZM49.3399 16.53L46.7799 12.93C46.4919 12.962 46.1933 12.978 45.8839 12.978H42.8759V16.53H41.6919V5.33003H45.8839C47.3133 5.33003 48.4333 5.67136 49.2439 6.35403C50.0546 7.0367 50.4599 7.97536 50.4599 9.17003C50.4599 10.0447 50.2359 10.786 49.7879 11.394C49.3506 11.9914 48.7213 12.4234 47.8999 12.69L50.6359 16.53H49.3399ZM45.8519 11.97C46.9613 11.97 47.8093 11.7247 48.3959 11.234C48.9826 10.7434 49.2759 10.0554 49.2759 9.17003C49.2759 8.26336 48.9826 7.57003 48.3959 7.09003C47.8093 6.59936 46.9613 6.35403 45.8519 6.35403H42.8759V11.97H45.8519ZM58.1504 16.626C57.0411 16.626 56.0331 16.3807 55.1264 15.89C54.2304 15.3887 53.5264 14.706 53.0144 13.842C52.5131 12.978 52.2624 12.0074 52.2624 10.93C52.2624 9.8527 52.5131 8.88203 53.0144 8.01803C53.5264 7.15403 54.2304 6.4767 55.1264 5.98603C56.0331 5.4847 57.0411 5.23403 58.1504 5.23403C59.2598 5.23403 60.2571 5.47936 61.1424 5.97003C62.0384 6.4607 62.7424 7.14336 63.2544 8.01803C63.7664 8.88203 64.0224 9.8527 64.0224 10.93C64.0224 12.0074 63.7664 12.9834 63.2544 13.858C62.7424 14.722 62.0384 15.3994 61.1424 15.89C60.2571 16.3807 59.2598 16.626 58.1504 16.626ZM58.1504 15.57C59.0358 15.57 59.8358 15.3727 60.5504 14.978C61.2651 14.5727 61.8251 14.018 62.2304 13.314C62.6358 12.5994 62.8384 11.8047 62.8384 10.93C62.8384 10.0554 62.6358 9.26603 62.2304 8.56203C61.8251 7.84736 61.2651 7.2927 60.5504 6.89803C59.8358 6.4927 59.0358 6.29003 58.1504 6.29003C57.2651 6.29003 56.4598 6.4927 55.7344 6.89803C55.0198 7.2927 54.4544 7.84736 54.0384 8.56203C53.6331 9.26603 53.4304 10.0554 53.4304 10.93C53.4304 11.8047 53.6331 12.5994 54.0384 13.314C54.4544 14.018 55.0198 14.5727 55.7344 14.978C56.4598 15.3727 57.2651 15.57 58.1504 15.57ZM67.8603 6.35403V10.754H73.6523V11.778H67.8603V16.53H66.6763V5.33003H74.3563V6.35403H67.8603ZM84.7213 15.506V16.53H76.8013V5.33003H84.4813V6.35403H77.9853V10.338H83.7773V11.346H77.9853V15.506H84.7213ZM90.5924 16.626C89.7604 16.626 88.9604 16.4927 88.1924 16.226C87.4351 15.9594 86.8484 15.6074 86.4324 15.17L86.8964 14.258C87.3018 14.6634 87.8404 14.994 88.5124 15.25C89.1844 15.4954 89.8778 15.618 90.5924 15.618C91.5951 15.618 92.3471 15.4367 92.8484 15.074C93.3498 14.7007 93.6004 14.2207 93.6004 13.634C93.6004 13.186 93.4618 12.8287 93.1844 12.562C92.9178 12.2954 92.5871 12.0927 92.1924 11.954C91.7978 11.8047 91.2484 11.6447 90.5444 11.474C89.7018 11.2607 89.0298 11.058 88.5284 10.866C88.0271 10.6634 87.5951 10.3594 87.2324 9.95403C86.8804 9.5487 86.7044 8.99936 86.7044 8.30603C86.7044 7.7407 86.8538 7.2287 87.1524 6.77003C87.4511 6.3007 87.9098 5.92736 88.5284 5.65003C89.1471 5.3727 89.9151 5.23403 90.8324 5.23403C91.4724 5.23403 92.0964 5.3247 92.7044 5.50603C93.3231 5.6767 93.8564 5.9167 94.3044 6.22603L93.9044 7.17003C93.4351 6.8607 92.9338 6.63136 92.4004 6.48203C91.8671 6.32203 91.3444 6.24203 90.8324 6.24203C89.8511 6.24203 89.1098 6.43403 88.6084 6.81803C88.1178 7.19136 87.8724 7.6767 87.8724 8.27403C87.8724 8.72203 88.0058 9.0847 88.2724 9.36203C88.5498 9.6287 88.8911 9.8367 89.2964 9.98603C89.7124 10.1247 90.2671 10.2794 90.9604 10.45C91.7818 10.6527 92.4431 10.8554 92.9444 11.058C93.4564 11.25 93.8884 11.5487 94.2404 11.954C94.5924 12.3487 94.7684 12.8874 94.7684 13.57C94.7684 14.1354 94.6138 14.6527 94.3044 15.122C94.0058 15.5807 93.5418 15.9487 92.9124 16.226C92.2831 16.4927 91.5098 16.626 90.5924 16.626ZM100.436 16.626C99.6042 16.626 98.8042 16.4927 98.0362 16.226C97.2788 15.9594 96.6922 15.6074 96.2762 15.17L96.7402 14.258C97.1455 14.6634 97.6842 14.994 98.3562 15.25C99.0282 15.4954 99.7215 15.618 100.436 15.618C101.439 15.618 102.191 15.4367 102.692 15.074C103.194 14.7007 103.444 14.2207 103.444 13.634C103.444 13.186 103.306 12.8287 103.028 12.562C102.762 12.2954 102.431 12.0927 102.036 11.954C101.642 11.8047 101.092 11.6447 100.388 11.474C99.5455 11.2607 98.8735 11.058 98.3722 10.866C97.8708 10.6634 97.4388 10.3594 97.0762 9.95403C96.7242 9.5487 96.5482 8.99936 96.5482 8.30603C96.5482 7.7407 96.6975 7.2287 96.9962 6.77003C97.2948 6.3007 97.7535 5.92736 98.3722 5.65003C98.9908 5.3727 99.7588 5.23403 100.676 5.23403C101.316 5.23403 101.94 5.3247 102.548 5.50603C103.167 5.6767 103.7 5.9167 104.148 6.22603L103.748 7.17003C103.279 6.8607 102.778 6.63136 102.244 6.48203C101.711 6.32203 101.188 6.24203 100.676 6.24203C99.6948 6.24203 98.9535 6.43403 98.4522 6.81803C97.9615 7.19136 97.7162 7.6767 97.7162 8.27403C97.7162 8.72203 97.8495 9.0847 98.1162 9.36203C98.3935 9.6287 98.7348 9.8367 99.1402 9.98603C99.5562 10.1247 100.111 10.2794 100.804 10.45C101.626 10.6527 102.287 10.8554 102.788 11.058C103.3 11.25 103.732 11.5487 104.084 11.954C104.436 12.3487 104.612 12.8874 104.612 13.57C104.612 14.1354 104.458 14.6527 104.148 15.122C103.85 15.5807 103.386 15.9487 102.756 16.226C102.127 16.4927 101.354 16.626 100.436 16.626ZM107.192 5.33003H108.376V16.53H107.192V5.33003ZM116.916 16.626C115.807 16.626 114.799 16.3807 113.892 15.89C112.996 15.3887 112.292 14.706 111.78 13.842C111.279 12.978 111.028 12.0074 111.028 10.93C111.028 9.8527 111.279 8.88203 111.78 8.01803C112.292 7.15403 112.996 6.4767 113.892 5.98603C114.799 5.4847 115.807 5.23403 116.916 5.23403C118.025 5.23403 119.023 5.47936 119.908 5.97003C120.804 6.4607 121.508 7.14336 122.02 8.01803C122.532 8.88203 122.788 9.8527 122.788 10.93C122.788 12.0074 122.532 12.9834 122.02 13.858C121.508 14.722 120.804 15.3994 119.908 15.89C119.023 16.3807 118.025 16.626 116.916 16.626ZM116.916 15.57C117.801 15.57 118.601 15.3727 119.316 14.978C120.031 14.5727 120.591 14.018 120.996 13.314C121.401 12.5994 121.604 11.8047 121.604 10.93C121.604 10.0554 121.401 9.26603 120.996 8.56203C120.591 7.84736 120.031 7.2927 119.316 6.89803C118.601 6.4927 117.801 6.29003 116.916 6.29003C116.031 6.29003 115.225 6.4927 114.5 6.89803C113.785 7.2927 113.22 7.84736 112.804 8.56203C112.399 9.26603 112.196 10.0554 112.196 10.93C112.196 11.8047 112.399 12.5994 112.804 13.314C113.22 14.018 113.785 14.5727 114.5 14.978C115.225 15.3727 116.031 15.57 116.916 15.57ZM134.802 5.33003V16.53H133.826L126.626 7.44203V16.53H125.442V5.33003H126.418L133.634 14.418V5.33003H134.802ZM145.482 13.538H139.242L137.898 16.53H136.666L141.786 5.33003H142.954L148.074 16.53H146.826L145.482 13.538ZM145.05 12.578L142.362 6.56203L139.674 12.578H145.05ZM149.926 5.33003H151.11V15.506H157.382V16.53H149.926V5.33003Z" fill="#F06A22"/>
<line x1="152.45" y1="43.7134" x2="303.433" y2="43.7134" stroke="black" stroke-width="2"/>
<defs>
<linearGradient id="paint0_linear" x1="4.44028" y1="52.9336" x2="133.707" y2="52.9336" gradientUnits="userSpaceOnUse">
<stop stop-color="#1C52A4"/>
<stop offset="1" stop-color="#F06A22"/>
</linearGradient>
</defs>
</svg>
