<svg width="212" height="70" viewBox="0 0 212 70" fill="none" xmlns="http://www.w3.org/2000/svg">
<rect x="1.31128" y="1.18213" width="209.942" height="67.8439" rx="33.9219" fill="#235AAC"/>
<rect x="1.31128" y="1.18213" width="209.942" height="67.8439" rx="33.9219" fill="url(#paint0_linear)"/>
<rect x="1.31128" y="1.18213" width="209.942" height="67.8439" rx="33.9219" fill="url(#paint1_linear)" fill-opacity="0.6"/>
<rect x="1.31128" y="1.18213" width="209.942" height="67.8439" rx="33.9219" stroke="url(#paint2_radial)"/>
<path d="M67.3552 41.3513C66.2485 41.3513 65.1752 41.2047 64.1352 40.9113C63.1085 40.6047 62.2819 40.2113 61.6552 39.7313L62.7552 37.2913C63.3552 37.7313 64.0685 38.0847 64.8952 38.3513C65.7219 38.618 66.5485 38.7513 67.3752 38.7513C68.2952 38.7513 68.9752 38.618 69.4152 38.3513C69.8552 38.0713 70.0752 37.7047 70.0752 37.2513C70.0752 36.918 69.9419 36.6447 69.6752 36.4313C69.4219 36.2047 69.0885 36.0247 68.6752 35.8913C68.2752 35.758 67.7285 35.6113 67.0352 35.4513C65.9685 35.198 65.0952 34.9447 64.4152 34.6913C63.7352 34.438 63.1485 34.0313 62.6552 33.4713C62.1752 32.9113 61.9352 32.1647 61.9352 31.2313C61.9352 30.418 62.1552 29.6847 62.5952 29.0313C63.0352 28.3647 63.6952 27.838 64.5752 27.4513C65.4685 27.0647 66.5552 26.8713 67.8352 26.8713C68.7285 26.8713 69.6019 26.978 70.4552 27.1913C71.3085 27.4047 72.0552 27.7113 72.6952 28.1113L71.6952 30.5713C70.4019 29.838 69.1085 29.4713 67.8152 29.4713C66.9085 29.4713 66.2352 29.618 65.7952 29.9113C65.3685 30.2047 65.1552 30.5913 65.1552 31.0713C65.1552 31.5513 65.4019 31.9113 65.8952 32.1513C66.4019 32.378 67.1685 32.6047 68.1952 32.8313C69.2619 33.0847 70.1352 33.338 70.8152 33.5913C71.4952 33.8447 72.0752 34.2447 72.5552 34.7913C73.0485 35.338 73.2952 36.078 73.2952 37.0113C73.2952 37.8113 73.0685 38.5447 72.6152 39.2113C72.1752 39.8647 71.5085 40.3847 70.6152 40.7713C69.7219 41.158 68.6352 41.3513 67.3552 41.3513ZM83.4291 41.3513C81.4291 41.3513 79.8691 40.798 78.7491 39.6913C77.6424 38.5847 77.0891 37.0047 77.0891 34.9513V27.1113H80.3291V34.8313C80.3291 37.338 81.3691 38.5913 83.4491 38.5913C84.4624 38.5913 85.2358 38.2913 85.7691 37.6913C86.3024 37.078 86.5691 36.1247 86.5691 34.8313V27.1113H89.7691V34.9513C89.7691 37.0047 89.2091 38.5847 88.0891 39.6913C86.9824 40.798 85.4291 41.3513 83.4291 41.3513ZM104.951 33.8313C105.751 34.0847 106.377 34.5113 106.831 35.1113C107.284 35.698 107.511 36.4247 107.511 37.2913C107.511 38.518 107.031 39.4647 106.071 40.1313C105.124 40.7847 103.737 41.1113 101.911 41.1113H94.6708V27.1113H101.511C103.217 27.1113 104.524 27.438 105.431 28.0913C106.351 28.7447 106.811 29.6313 106.811 30.7513C106.811 31.4313 106.644 32.038 106.311 32.5713C105.991 33.1047 105.537 33.5247 104.951 33.8313ZM97.8908 29.5513V32.8513H101.111C101.911 32.8513 102.517 32.7113 102.931 32.4313C103.344 32.1513 103.551 31.738 103.551 31.1913C103.551 30.6447 103.344 30.238 102.931 29.9713C102.517 29.6913 101.911 29.5513 101.111 29.5513H97.8908ZM101.671 38.6713C102.524 38.6713 103.164 38.5313 103.591 38.2513C104.031 37.9713 104.251 37.538 104.251 36.9513C104.251 35.7913 103.391 35.2113 101.671 35.2113H97.8908V38.6713H101.671ZM124.404 41.1113L124.384 32.7113L120.264 39.6313H118.804L114.704 32.8913V41.1113H111.664V27.1113H114.344L119.584 35.8113L124.744 27.1113H127.404L127.444 41.1113H124.404ZM132.465 27.1113H135.705V41.1113H132.465V27.1113ZM143.628 29.7513H139.148V27.1113H151.348V29.7513H146.868V41.1113H143.628V29.7513Z" fill="white"/>
<defs>
<linearGradient id="paint0_linear" x1="85.4961" y1="11.8967" x2="59.54" y2="68.8629" gradientUnits="userSpaceOnUse">
<stop stop-color="#ED6A23"/>
<stop offset="0.4375" stop-color="#98635D" stop-opacity="0.578218"/>
<stop offset="1" stop-color="#235AAC" stop-opacity="0"/>
</linearGradient>
<linearGradient id="paint1_linear" x1="106.282" y1="-34.5221" x2="106.282" y2="69.526" gradientUnits="userSpaceOnUse">
<stop offset="0.541667" stop-color="#F0E811"/>
<stop offset="1" stop-color="white" stop-opacity="0"/>
</linearGradient>
<radialGradient id="paint2_radial" cx="0" cy="0" r="1" gradientUnits="userSpaceOnUse" gradientTransform="translate(106.282 -10.2703) rotate(90) scale(79.7963 244.501)">
<stop stop-color="white"/>
<stop offset="1" stop-color="white" stop-opacity="0"/>
</radialGradient>
</defs>
</svg>
