<svg width="496" height="76" viewBox="0 0 496 76" fill="none" xmlns="http://www.w3.org/2000/svg">
<path d="M9.17114 35.2559H1.10713V30.5039H23.0671V35.2559H15.0031V55.7039H9.17114V35.2559ZM45.717 51.0239V55.7039H26.205V30.5039H45.249V35.1839H32.001V40.6559H43.701V45.1919H32.001V51.0239H45.717ZM58.6374 56.1359C56.6454 56.1359 54.7134 55.8719 52.8414 55.3439C50.9934 54.7919 49.5054 54.0839 48.3774 53.2199L50.3574 48.8279C51.4374 49.6199 52.7214 50.2559 54.2094 50.7359C55.6974 51.2159 57.1854 51.4559 58.6734 51.4559C60.3294 51.4559 61.5534 51.2159 62.3454 50.7359C63.1374 50.2319 63.5334 49.5719 63.5334 48.7559C63.5334 48.1559 63.2934 47.6639 62.8134 47.2799C62.3574 46.8719 61.7574 46.5479 61.0134 46.3079C60.2934 46.0679 59.3094 45.8039 58.0614 45.5159C56.1414 45.0599 54.5694 44.6039 53.3454 44.1479C52.1214 43.6919 51.0654 42.9599 50.1774 41.9519C49.3134 40.9439 48.8814 39.5999 48.8814 37.9199C48.8814 36.4559 49.2774 35.1359 50.0694 33.9599C50.8614 32.7599 52.0494 31.8119 53.6334 31.1159C55.2414 30.4199 57.1974 30.0719 59.5014 30.0719C61.1094 30.0719 62.6814 30.2639 64.2174 30.6479C65.7534 31.0319 67.0974 31.5839 68.2494 32.3039L66.4494 36.7319C64.1214 35.4119 61.7934 34.7519 59.4654 34.7519C57.8334 34.7519 56.6214 35.0159 55.8294 35.5439C55.0614 36.0719 54.6774 36.7679 54.6774 37.6319C54.6774 38.4959 55.1214 39.1439 56.0094 39.5759C56.9214 39.9839 58.3014 40.3919 60.1494 40.7999C62.0694 41.2559 63.6414 41.7119 64.8654 42.1679C66.0894 42.6239 67.1334 43.3439 67.9974 44.3279C68.8854 45.3119 69.3294 46.6439 69.3294 48.3239C69.3294 49.7639 68.9214 51.0839 68.1054 52.2839C67.3134 53.4599 66.1134 54.3959 64.5054 55.0919C62.8974 55.7879 60.9414 56.1359 58.6374 56.1359ZM78.1829 35.2559H70.1189V30.5039H92.0789V35.2559H84.0149V55.7039H78.1829V35.2559ZM95.2168 30.5039H101.049V55.7039H95.2168V30.5039ZM129.961 55.7039L129.925 40.5839L122.509 53.0399H119.881L112.501 40.9079V55.7039H107.029V30.5039H111.853L121.285 46.1639L130.573 30.5039H135.361L135.433 55.7039H129.961ZM153.616 56.1359C151 56.1359 148.636 55.5719 146.524 54.4439C144.436 53.3159 142.792 51.7679 141.592 49.7999C140.416 47.8079 139.828 45.5759 139.828 43.1039C139.828 40.6319 140.416 38.4119 141.592 36.4439C142.792 34.4519 144.436 32.8919 146.524 31.7639C148.636 30.6359 151 30.0719 153.616 30.0719C156.232 30.0719 158.584 30.6359 160.672 31.7639C162.76 32.8919 164.404 34.4519 165.604 36.4439C166.804 38.4119 167.404 40.6319 167.404 43.1039C167.404 45.5759 166.804 47.8079 165.604 49.7999C164.404 51.7679 162.76 53.3159 160.672 54.4439C158.584 55.5719 156.232 56.1359 153.616 56.1359ZM153.616 51.1679C155.104 51.1679 156.448 50.8319 157.648 50.1599C158.848 49.4639 159.784 48.5039 160.456 47.2799C161.152 46.0559 161.5 44.6639 161.5 43.1039C161.5 41.5439 161.152 40.1519 160.456 38.9279C159.784 37.7039 158.848 36.7559 157.648 36.0839C156.448 35.3879 155.104 35.0399 153.616 35.0399C152.128 35.0399 150.784 35.3879 149.584 36.0839C148.384 36.7559 147.436 37.7039 146.74 38.9279C146.068 40.1519 145.732 41.5439 145.732 43.1039C145.732 44.6639 146.068 46.0559 146.74 47.2799C147.436 48.5039 148.384 49.4639 149.584 50.1599C150.784 50.8319 152.128 51.1679 153.616 51.1679ZM194.899 30.5039V55.7039H190.111L177.547 40.4039V55.7039H171.787V30.5039H176.611L189.139 45.8039V30.5039H194.899ZM200.861 30.5039H206.693V55.7039H200.861V30.5039ZM229.27 50.3039H217.57L215.338 55.7039H209.362L220.594 30.5039H226.354L237.622 55.7039H231.502L229.27 50.3039ZM227.434 45.8759L223.438 36.2279L219.442 45.8759H227.434ZM240.236 30.5039H246.068V50.9519H258.704V55.7039H240.236V30.5039ZM270.102 56.1359C268.11 56.1359 266.178 55.8719 264.306 55.3439C262.458 54.7919 260.97 54.0839 259.842 53.2199L261.822 48.8279C262.902 49.6199 264.186 50.2559 265.674 50.7359C267.162 51.2159 268.65 51.4559 270.138 51.4559C271.794 51.4559 273.018 51.2159 273.81 50.7359C274.602 50.2319 274.998 49.5719 274.998 48.7559C274.998 48.1559 274.758 47.6639 274.278 47.2799C273.822 46.8719 273.222 46.5479 272.478 46.3079C271.758 46.0679 270.774 45.8039 269.526 45.5159C267.606 45.0599 266.034 44.6039 264.81 44.1479C263.586 43.6919 262.53 42.9599 261.642 41.9519C260.778 40.9439 260.346 39.5999 260.346 37.9199C260.346 36.4559 260.742 35.1359 261.534 33.9599C262.326 32.7599 263.514 31.8119 265.098 31.1159C266.706 30.4199 268.662 30.0719 270.966 30.0719C272.574 30.0719 274.146 30.2639 275.682 30.6479C277.218 31.0319 278.562 31.5839 279.714 32.3039L277.914 36.7319C275.586 35.4119 273.258 34.7519 270.93 34.7519C269.298 34.7519 268.086 35.0159 267.294 35.5439C266.526 36.0719 266.142 36.7679 266.142 37.6319C266.142 38.4959 266.586 39.1439 267.474 39.5759C268.386 39.9839 269.766 40.3919 271.614 40.7999C273.534 41.2559 275.106 41.7119 276.33 42.1679C277.554 42.6239 278.598 43.3439 279.462 44.3279C280.35 45.3119 280.794 46.6439 280.794 48.3239C280.794 49.7639 280.386 51.0839 279.57 52.2839C278.778 53.4599 277.578 54.3959 275.97 55.0919C274.362 55.7879 272.406 56.1359 270.102 56.1359Z" fill="url(#paint0_linear)"/>
<path d="M41.8125 16.8233C40.7032 16.8233 39.7005 16.578 38.8045 16.0873C37.9192 15.5966 37.2205 14.9193 36.7085 14.0553C36.2072 13.1806 35.9565 12.2046 35.9565 11.1273C35.9565 10.05 36.2072 9.07929 36.7085 8.21529C37.2205 7.34063 37.9245 6.65796 38.8205 6.16729C39.7165 5.67663 40.7192 5.43129 41.8285 5.43129C42.6605 5.43129 43.4285 5.56996 44.1325 5.84729C44.8365 6.12463 45.4338 6.52996 45.9245 7.06329L45.1725 7.81529C44.2978 6.92996 43.1938 6.48729 41.8605 6.48729C40.9752 6.48729 40.1698 6.68996 39.4445 7.09529C38.7192 7.50063 38.1485 8.05529 37.7325 8.75929C37.3272 9.46329 37.1245 10.2526 37.1245 11.1273C37.1245 12.002 37.3272 12.7913 37.7325 13.4953C38.1485 14.1993 38.7192 14.754 39.4445 15.1593C40.1698 15.5646 40.9752 15.7673 41.8605 15.7673C43.2045 15.7673 44.3085 15.3193 45.1725 14.4233L45.9245 15.1753C45.4338 15.7086 44.8312 16.1193 44.1165 16.4073C43.4125 16.6846 42.6445 16.8233 41.8125 16.8233ZM56.0965 16.7273L53.5365 13.1273C53.2485 13.1593 52.9498 13.1753 52.6405 13.1753H49.6325V16.7273H48.4485V5.52729H52.6405C54.0698 5.52729 55.1898 5.86863 56.0005 6.55129C56.8112 7.23396 57.2165 8.17263 57.2165 9.36729C57.2165 10.242 56.9925 10.9833 56.5445 11.5913C56.1072 12.1886 55.4778 12.6206 54.6565 12.8873L57.3925 16.7273H56.0965ZM52.6085 12.1673C53.7178 12.1673 54.5658 11.922 55.1525 11.4313C55.7392 10.9406 56.0325 10.2526 56.0325 9.36729C56.0325 8.46063 55.7392 7.76729 55.1525 7.28729C54.5658 6.79663 53.7178 6.55129 52.6085 6.55129H49.6325V12.1673H52.6085ZM67.931 15.7033V16.7273H60.011V5.52729H67.691V6.55129H61.195V10.5353H66.987V11.5433H61.195V15.7033H67.931ZM77.7381 13.7353H71.4981L70.1541 16.7273H68.9221L74.0421 5.52729H75.2101L80.3301 16.7273H79.0821L77.7381 13.7353ZM77.3061 12.7753L74.6181 6.75929L71.9301 12.7753H77.3061ZM83.7964 6.55129H79.8604V5.52729H88.9164V6.55129H84.9804V16.7273H83.7964V6.55129ZM90.8079 5.52729H91.9919V16.7273H90.8079V5.52729ZM104.823 5.52729L99.863 16.7273H98.695L93.735 5.52729H95.015L99.303 15.2553L103.623 5.52729H104.823ZM114.369 15.7033V16.7273H106.449V5.52729H114.129V6.55129H107.633V10.5353H113.425V11.5433H107.633V15.7033H114.369Z" fill="#F06A22"/>
<line x1="312.259" y1="51.3596" x2="495.718" y2="51.3596" stroke="black" stroke-width="2"/>
<defs>
<linearGradient id="paint0_linear" x1="11.6719" y1="64.4028" x2="356.495" y2="64.4028" gradientUnits="userSpaceOnUse">
<stop stop-color="#1C52A4"/>
<stop offset="1" stop-color="#F06A22"/>
</linearGradient>
</defs>
</svg>
