<svg width="38" height="36" viewBox="0 0 38 36" fill="none" xmlns="http://www.w3.org/2000/svg">
<path d="M18.922 0.0458984C4.39718 0.0458984 0.699951 3.68239 0.699951 17.9686C0.699951 32.2549 4.39718 35.8914 18.922 35.8914C33.4468 35.8914 37.144 32.2549 37.144 17.9686C37.144 3.68239 33.4468 0.0458984 18.922 0.0458984Z" fill="#34AAF3"/>
<path d="M28.165 11.9943C27.6368 12.254 27.3727 12.254 26.8445 12.5138C27.3727 11.9943 27.6368 11.4748 27.9009 10.6955C27.9009 10.4358 27.6368 10.4358 27.6368 10.4358C27.1086 10.6955 26.3164 10.9553 25.5241 11.215C25.5241 11.215 25.26 11.215 25.26 10.9553C24.4678 10.4358 23.6755 9.91626 22.6191 9.91626C22.091 9.91626 21.8269 9.91626 21.2987 10.176C19.9783 10.6955 18.9219 11.7345 18.6578 13.0333C18.6578 13.5528 18.3938 14.0723 18.6578 14.5918C15.7529 14.332 13.112 13.0333 11.2634 10.6955H10.9993C10.7352 11.215 10.4711 11.9943 10.4711 12.7735C10.4711 13.8125 10.9993 14.8515 11.7916 15.6308C10.7352 15.8905 10.4712 15.6308 10.2071 15.6308C9.94298 15.6308 9.94296 15.6308 9.94296 15.8905C9.94296 17.449 10.9993 19.0075 12.3197 19.527C12.0557 19.527 11.7916 19.527 11.5275 19.527C11.2634 19.527 11.2634 19.527 11.2634 19.7868C11.7916 21.3453 13.112 22.3843 14.4325 22.644C13.112 23.4233 11.7916 23.9428 10.2071 23.9428H9.67888C9.41479 23.9428 9.41479 23.9428 9.41479 24.2025C9.41479 24.4623 9.41479 24.4623 9.67888 24.4623C11.2634 25.5013 13.3761 26.0208 15.2247 26.0208C17.0733 26.0208 18.6578 25.761 19.9783 24.9818C21.2987 24.4623 22.6192 23.4233 23.4114 22.3843C24.4678 21.3453 24.9959 20.0465 25.5241 18.7478C26.0523 17.449 26.3164 16.1503 26.3164 14.8515C26.3164 14.5918 26.3164 14.332 26.5805 14.332C27.1086 13.8125 27.6368 13.293 28.165 12.5138C28.4291 12.254 28.4291 11.9943 28.165 11.9943Z" fill="white"/>
</svg>
