<svg width="27" height="26" viewBox="0 0 27 26" fill="none" xmlns="http://www.w3.org/2000/svg">
<path d="M13.5893 0C3.36929 0 0.767822 2.55874 0.767822 12.6109C0.767822 22.6631 3.36929 25.2219 13.5893 25.2219C23.8094 25.2219 26.4109 22.6631 26.4109 12.6109C26.4109 2.55874 23.8094 0 13.5893 0Z" fill="#34AAF3"/>
<path d="M20.0929 8.40733C19.7213 8.5901 19.5354 8.5901 19.1638 8.77287C19.5354 8.40733 19.7213 8.0418 19.9071 7.49349C19.9071 7.31073 19.7213 7.31073 19.7213 7.31073C19.3496 7.49349 18.7922 7.67626 18.2347 7.85903C18.2347 7.85903 18.0489 7.85903 18.0489 7.67626C17.4914 7.31073 16.934 6.94519 16.1907 6.94519C15.8191 6.94519 15.6333 6.94519 15.2616 7.12796C14.3325 7.49349 13.5893 8.22456 13.4034 9.1384C13.4034 9.50394 13.2176 9.86947 13.4034 10.235C11.3594 10.0522 9.50124 9.1384 8.20051 7.49349H8.01469C7.82887 7.85903 7.64306 8.40733 7.64306 8.95563C7.64306 9.6867 8.01469 10.4178 8.57215 10.9661C7.82888 11.1488 7.64306 10.9661 7.45724 10.9661C7.27142 10.9661 7.27141 10.9661 7.27141 11.1488C7.27141 12.2454 8.01469 13.3421 8.94378 13.7076C8.75796 13.7076 8.57215 13.7076 8.38634 13.7076C8.20052 13.7076 8.20051 13.7076 8.20051 13.8904C8.57214 14.987 9.50124 15.718 10.4303 15.9008C9.50124 16.4491 8.57215 16.8146 7.45724 16.8146H7.0856C6.89978 16.8146 6.89978 16.8146 6.89978 16.9974C6.89978 17.1802 6.89978 17.1802 7.0856 17.1802C8.20051 17.9112 9.68705 18.2768 10.9878 18.2768C12.2885 18.2768 13.4034 18.094 14.3325 17.5457C15.2616 17.1802 16.1907 16.4491 16.7482 15.718C17.4914 14.987 17.8631 14.0731 18.2347 13.1593C18.6064 12.2454 18.7922 11.3316 18.7922 10.4178C18.7922 10.235 18.7922 10.0522 18.978 10.0522C19.3496 9.6867 19.7213 9.32117 20.0929 8.77287C20.2787 8.5901 20.2787 8.40733 20.0929 8.40733Z" fill="white"/>
</svg>
