<svg width="41" height="41" viewBox="0 0 41 41" fill="none" xmlns="http://www.w3.org/2000/svg">
<path d="M40.2043 20.4334C40.2043 31.2443 31.3231 40.0084 20.3675 40.0084C9.41198 40.0084 0.530762 31.2443 0.530762 20.4334C0.530762 9.62241 9.41198 0.858398 20.3675 0.858398C31.3231 0.858398 40.2043 9.62241 40.2043 20.4334Z" fill="#EA6925"/>
<path d="M9.85358 20.5573C9.65832 20.7526 9.65832 21.0692 9.85358 21.2644L13.0356 24.4464C13.2308 24.6417 13.5474 24.6417 13.7427 24.4464C13.9379 24.2512 13.9379 23.9346 13.7427 23.7393L10.9142 20.9109L13.7427 18.0825C13.9379 17.8872 13.9379 17.5706 13.7427 17.3754C13.5474 17.1801 13.2308 17.1801 13.0356 17.3754L9.85358 20.5573ZM31.4954 20.4109L10.2071 20.4109L10.2071 21.4109L31.4954 21.4109L31.4954 20.4109Z" fill="black"/>
</svg>
