<svg width="265" height="53" viewBox="0 0 265 53" fill="none" xmlns="http://www.w3.org/2000/svg">
<rect x="0.792236" y="1.17505" width="263.48" height="50.994" rx="25.497" fill="#235AAC"/>
<rect x="0.792236" y="1.17505" width="263.48" height="50.994" rx="25.497" fill="url(#paint0_linear)"/>
<rect x="0.792236" y="1.17505" width="263.48" height="50.994" rx="25.497" fill="url(#paint1_linear)" fill-opacity="0.6"/>
<rect x="0.792236" y="1.17505" width="263.48" height="50.994" rx="25.497" stroke="url(#paint2_radial)"/>
<path d="M51.7222 20.8146V30.6146H49.4542V26.5966H45.0022V30.6146H42.7342V20.8146H45.0022V24.6786H49.4542V20.8146H51.7222ZM55.2308 20.8146H57.4988V30.6146H55.2308V20.8146ZM67.2586 30.6146L65.3686 27.8846H65.2566H63.2826V30.6146H61.0146V20.8146H65.2566C66.1246 20.8146 66.8759 20.9593 67.5106 21.2486C68.1546 21.538 68.6492 21.9486 68.9946 22.4806C69.3399 23.0126 69.5126 23.6426 69.5126 24.3706C69.5126 25.0986 69.3352 25.7286 68.9806 26.2606C68.6352 26.7833 68.1406 27.1846 67.4966 27.4646L69.6946 30.6146H67.2586ZM67.2166 24.3706C67.2166 23.82 67.0392 23.4 66.6846 23.1106C66.3299 22.812 65.8119 22.6626 65.1306 22.6626H63.2826V26.0786H65.1306C65.8119 26.0786 66.3299 25.9293 66.6846 25.6306C67.0392 25.332 67.2166 24.912 67.2166 24.3706ZM80.0875 28.7946V30.6146H72.4995V20.8146H79.9055V22.6346H74.7535V24.7626H79.3035V26.5266H74.7535V28.7946H80.0875ZM97.1549 30.6146L97.1409 24.7346L94.2569 29.5786H93.2349L90.3649 24.8606V30.6146H88.2369V20.8146H90.1129L93.7809 26.9046L97.3929 20.8146H99.2549L99.2829 30.6146H97.1549ZM110.386 28.7946V30.6146H102.798V20.8146H110.204V22.6346H105.052V24.7626H109.602V26.5266H105.052V28.7946H110.386ZM123.281 30.7826C122.264 30.7826 121.345 30.5633 120.523 30.1246C119.711 29.686 119.072 29.084 118.605 28.3186C118.148 27.544 117.919 26.676 117.919 25.7146C117.919 24.7533 118.148 23.89 118.605 23.1246C119.072 22.35 119.711 21.7433 120.523 21.3046C121.345 20.866 122.264 20.6466 123.281 20.6466C124.299 20.6466 125.213 20.866 126.025 21.3046C126.837 21.7433 127.477 22.35 127.943 23.1246C128.41 23.89 128.643 24.7533 128.643 25.7146C128.643 26.676 128.41 27.544 127.943 28.3186C127.477 29.084 126.837 29.686 126.025 30.1246C125.213 30.5633 124.299 30.7826 123.281 30.7826ZM123.281 28.8506C123.86 28.8506 124.383 28.72 124.849 28.4586C125.316 28.188 125.68 27.8146 125.941 27.3386C126.212 26.8626 126.347 26.3213 126.347 25.7146C126.347 25.108 126.212 24.5666 125.941 24.0906C125.68 23.6146 125.316 23.246 124.849 22.9846C124.383 22.714 123.86 22.5786 123.281 22.5786C122.703 22.5786 122.18 22.714 121.713 22.9846C121.247 23.246 120.878 23.6146 120.607 24.0906C120.346 24.5666 120.215 25.108 120.215 25.7146C120.215 26.3213 120.346 26.8626 120.607 27.3386C120.878 27.8146 121.247 28.188 121.713 28.4586C122.18 28.72 122.703 28.8506 123.281 28.8506ZM140.526 20.8146V30.6146H138.664L133.778 24.6646V30.6146H131.538V20.8146H133.414L138.286 26.7646V20.8146H140.526ZM153.543 30.7826C152.143 30.7826 151.051 30.3953 150.267 29.6206C149.493 28.846 149.105 27.74 149.105 26.3026V20.8146H151.373V26.2186C151.373 27.9733 152.101 28.8506 153.557 28.8506C154.267 28.8506 154.808 28.6406 155.181 28.2206C155.555 27.7913 155.741 27.124 155.741 26.2186V20.8146H157.981V26.3026C157.981 27.74 157.589 28.846 156.805 29.6206C156.031 30.3953 154.943 30.7826 153.543 30.7826ZM165.655 20.8146C166.523 20.8146 167.274 20.9593 167.909 21.2486C168.553 21.538 169.047 21.9486 169.393 22.4806C169.738 23.0126 169.911 23.6426 169.911 24.3706C169.911 25.0893 169.738 25.7193 169.393 26.2606C169.047 26.7926 168.553 27.2033 167.909 27.4926C167.274 27.7726 166.523 27.9126 165.655 27.9126H163.681V30.6146H161.413V20.8146H165.655ZM165.529 26.0646C166.21 26.0646 166.728 25.92 167.083 25.6306C167.437 25.332 167.615 24.912 167.615 24.3706C167.615 23.82 167.437 23.4 167.083 23.1106C166.728 22.812 166.21 22.6626 165.529 22.6626H163.681V26.0646H165.529ZM187.422 20.8146L184.216 30.6146H181.78L179.624 23.9786L177.398 30.6146H174.976L171.756 20.8146H174.108L176.32 27.7026L178.63 20.8146H180.73L182.97 27.7586L185.252 20.8146H187.422ZM194.502 30.7826C193.484 30.7826 192.565 30.5633 191.744 30.1246C190.932 29.686 190.292 29.084 189.826 28.3186C189.368 27.544 189.14 26.676 189.14 25.7146C189.14 24.7533 189.368 23.89 189.826 23.1246C190.292 22.35 190.932 21.7433 191.744 21.3046C192.565 20.866 193.484 20.6466 194.502 20.6466C195.519 20.6466 196.434 20.866 197.246 21.3046C198.058 21.7433 198.697 22.35 199.164 23.1246C199.63 23.89 199.864 24.7533 199.864 25.7146C199.864 26.676 199.63 27.544 199.164 28.3186C198.697 29.084 198.058 29.686 197.246 30.1246C196.434 30.5633 195.519 30.7826 194.502 30.7826ZM194.502 28.8506C195.08 28.8506 195.603 28.72 196.07 28.4586C196.536 28.188 196.9 27.8146 197.162 27.3386C197.432 26.8626 197.568 26.3213 197.568 25.7146C197.568 25.108 197.432 24.5666 197.162 24.0906C196.9 23.6146 196.536 23.246 196.07 22.9846C195.603 22.714 195.08 22.5786 194.502 22.5786C193.923 22.5786 193.4 22.714 192.934 22.9846C192.467 23.246 192.098 23.6146 191.828 24.0906C191.566 24.5666 191.436 25.108 191.436 25.7146C191.436 26.3213 191.566 26.8626 191.828 27.3386C192.098 27.8146 192.467 28.188 192.934 28.4586C193.4 28.72 193.923 28.8506 194.502 28.8506ZM209.002 30.6146L207.112 27.8846H207H205.026V30.6146H202.758V20.8146H207C207.868 20.8146 208.619 20.9593 209.254 21.2486C209.898 21.538 210.393 21.9486 210.738 22.4806C211.083 23.0126 211.256 23.6426 211.256 24.3706C211.256 25.0986 211.079 25.7286 210.724 26.2606C210.379 26.7833 209.884 27.1846 209.24 27.4646L211.438 30.6146H209.002ZM208.96 24.3706C208.96 23.82 208.783 23.4 208.428 23.1106C208.073 22.812 207.555 22.6626 206.874 22.6626H205.026V26.0786H206.874C207.555 26.0786 208.073 25.9293 208.428 25.6306C208.783 25.332 208.96 24.912 208.96 24.3706ZM217.813 26.7646L216.497 28.1366V30.6146H214.243V20.8146H216.497V25.3926L220.837 20.8146H223.357L219.297 25.1826L223.595 30.6146H220.949L217.813 26.7646Z" fill="white"/>
<defs>
<linearGradient id="paint0_linear" x1="106.471" y1="9.14483" x2="93.2097" y2="57.4607" gradientUnits="userSpaceOnUse">
<stop stop-color="#ED6A23"/>
<stop offset="0.4375" stop-color="#98635D" stop-opacity="0.578218"/>
<stop offset="1" stop-color="#235AAC" stop-opacity="0"/>
</linearGradient>
<linearGradient id="paint1_linear" x1="132.532" y1="-25.9128" x2="132.532" y2="52.669" gradientUnits="userSpaceOnUse">
<stop offset="0.541667" stop-color="#F0E811"/>
<stop offset="1" stop-color="white" stop-opacity="0"/>
</linearGradient>
<radialGradient id="paint2_radial" cx="0" cy="0" r="1" gradientUnits="userSpaceOnUse" gradientTransform="translate(132.532 -7.59672) rotate(90) scale(60.2657 306.557)">
<stop stop-color="white"/>
<stop offset="1" stop-color="white" stop-opacity="0"/>
</radialGradient>
</defs>
</svg>
