<svg width="54" height="53" viewBox="0 0 54 53" fill="none" xmlns="http://www.w3.org/2000/svg">
<path d="M37.8532 22.1996C34.8647 22.1996 33.9041 25.0341 33.6906 26.7137V26.8187L33.2637 28.3934C34.5445 29.4432 36.1455 30.1781 37.7465 30.1781C39.8812 30.1781 41.8024 28.3934 41.9091 26.0839C41.9091 23.9843 40.0946 22.1996 37.8532 22.1996Z" fill="#90DC71"/>
<path d="M27.2864 0.258545C12.6638 0.258545 0.816406 11.9114 0.816406 26.2938C0.816406 40.6761 12.6638 52.329 27.2864 52.329C41.9089 52.329 53.7563 40.6761 53.7563 26.2938C53.7563 11.9114 41.9089 0.258545 27.2864 0.258545ZM37.853 34.2723C35.7183 34.2723 33.9039 33.6424 32.3029 32.6976L30.4884 41.096H26.3258L28.8874 29.5482C27.82 28.0784 26.7527 26.3987 26.0056 24.824V26.6087C26.0056 30.9129 22.4833 34.3773 18.214 34.3773C13.9447 34.3773 10.4224 30.9129 10.4224 26.6087V16.1106H14.4783V26.6087C14.4783 28.7083 16.1861 30.388 18.3207 30.388C20.4554 30.388 22.1631 28.7083 22.1631 26.6087V16.1106H26.219C27.0729 18.7352 28.4604 21.8846 30.2749 24.7191C31.3422 20.7298 34.3308 18.3152 38.0665 18.3152C42.4426 18.3152 46.0715 21.8846 46.0715 26.1888C45.858 30.703 42.2291 34.2723 37.853 34.2723Z" fill="#90DC71"/>
</svg>
