<svg width="67" height="66" viewBox="0 0 67 66" fill="none" xmlns="http://www.w3.org/2000/svg">
<path d="M33.7333 34.7979C33.7333 34.7979 33.6813 34.7979 33.6293 34.7979C31.8085 40.0169 29.9877 45.236 28.167 50.4551C32.0166 51.5296 35.7622 51.4273 39.4557 50.1993C37.5309 45.0314 35.6581 39.9146 33.7333 34.7979Z" fill="black"/>
<path d="M16.618 25.8435C16.566 25.8435 16.566 25.8435 16.514 25.8435C14.4852 30.6021 14.3811 35.4118 16.462 40.2216C18.2307 44.315 21.196 47.3339 25.2537 49.3806C25.3057 49.3806 25.3057 49.3294 25.3577 49.3294C22.4445 41.4496 19.5313 33.6721 16.618 25.8435Z" fill="black"/>
<path d="M44.6579 27.9415C44.2417 27.174 43.7735 26.4577 43.3053 25.6902C42.8892 24.9738 42.577 24.2063 42.473 23.3877C42.2649 21.6991 43.4094 20.1129 45.1261 19.8059C45.2822 19.7548 45.4902 19.7548 45.8024 19.7036C40.7042 15.5079 35.0339 14.024 28.6872 15.6102C24.1613 16.7359 20.6758 19.2943 17.9707 23.183C18.9591 23.183 19.8435 23.183 20.6758 23.183C21.7683 23.1318 22.8608 23.0295 23.9532 22.9783C24.4734 22.9271 24.7856 23.183 24.8376 23.5923C24.8896 24.0528 24.6815 24.3598 24.1093 24.411C23.9532 24.4622 23.7971 24.4622 23.6411 24.4622C23.1209 24.5133 22.6527 24.5645 22.0804 24.6157C24.3174 31.1651 26.5543 37.6633 28.7392 44.1104C28.8433 44.0592 28.8953 44.0081 28.8953 43.9569C30.1958 40.1705 31.4964 36.3841 32.7449 32.5466C32.7969 32.3931 32.7449 32.1373 32.6929 31.9838C31.8605 29.6301 30.9762 27.3275 30.0918 24.9738C29.9877 24.6668 29.8317 24.5645 29.5195 24.5645C28.9993 24.5645 28.4791 24.4622 27.9589 24.411C27.5427 24.3598 27.3346 24.0528 27.3346 23.6435C27.3867 23.2342 27.6468 22.9783 28.0629 22.9783C28.271 22.9783 28.4271 23.0295 28.6352 23.0295C30.612 23.0806 32.6409 23.1318 34.6177 23.183C35.6581 23.183 36.7506 23.0806 37.791 23.0295C38.2592 23.0295 38.5713 23.2853 38.6234 23.6947C38.6754 24.104 38.4153 24.411 37.9991 24.4622C37.791 24.5133 37.635 24.5133 37.4269 24.5133C36.9066 24.5645 36.3864 24.6157 35.8662 24.6668C38.1031 31.1651 40.2881 37.561 42.525 44.1104C42.577 43.9569 42.629 43.9057 42.629 43.8546C43.5654 40.8357 44.4498 37.8168 45.3862 34.798C46.1145 32.3931 45.9064 30.0906 44.6579 27.9415Z" fill="black"/>
<path d="M49.5999 24.5645C49.6519 25.946 49.6519 27.2252 49.4438 28.5555C49.1837 30.0394 48.7155 31.472 48.1953 32.9047C46.3746 37.868 44.6578 42.8312 42.9411 47.7944C42.8371 48.0502 42.7331 48.3572 42.681 48.6131C42.7331 48.6131 42.7331 48.6642 42.7851 48.6642C47.7271 45.6454 50.7444 41.2962 51.6287 35.6166C52.201 31.7279 51.5247 28.0438 49.5999 24.5645Z" fill="black"/>
<path d="M49.7039 0.873779H17.0342C7.98243 0.873779 0.595337 8.13953 0.595337 17.0426V49.2268C0.595337 58.0787 7.98243 65.3445 17.0342 65.3445H49.7559C58.8077 65.3445 66.1948 58.0787 66.1948 49.1756V17.0426C66.1428 8.13953 58.7557 0.873779 49.7039 0.873779ZM53.6576 34.1325C53.6576 34.286 53.6576 34.3883 53.6576 34.5418C53.5015 37.2025 52.8252 39.7609 51.5767 42.1146C48.2993 48.2035 43.2532 51.7852 36.2823 52.9108C35.658 53.0132 35.0338 53.0644 34.4095 53.0644H32.3286C32.2246 53.0644 32.0685 53.0644 31.9125 53.0644C29.2073 52.9108 26.6583 52.2968 24.3173 51.0688C18.0747 47.8453 14.4331 42.8821 13.2887 36.0257C13.1326 35.3605 13.0806 34.7976 13.0806 34.1325V32.0858C13.0806 31.9835 13.0806 31.83 13.0806 31.6764C13.2366 28.9646 13.9129 26.4062 15.2135 24.0525C18.4908 18.0148 23.537 14.4843 30.4038 13.3586C31.0281 13.2562 31.7044 13.2051 32.3286 13.2051H34.4095C34.5656 13.2051 34.6696 13.2051 34.8257 13.2051C37.4788 13.3586 40.0279 13.9726 42.4209 15.2006C48.6635 18.4241 52.357 23.3874 53.5015 30.2949C53.6056 30.9089 53.6576 31.5229 53.6576 32.137V34.1325Z" fill="black"/>
</svg>
